<svg width="58" height="58" viewBox="0 0 58 58" fill="none" xmlns="http://www.w3.org/2000/svg">
<path d="M38.6667 16.9167V14.9833C38.6667 12.2764 38.6667 10.9229 38.1398 9.88905C37.6766 8.97958 36.9371 8.24018 36.0277 7.77681C34.9938 7.25 33.6402 7.25 30.9333 7.25H27.0667C24.3598 7.25 23.0063 7.25 21.9724 7.77681C21.0629 8.24018 20.3235 8.97958 19.8601 9.88905C19.3333 10.9229 19.3333 12.2764 19.3333 14.9833V16.9167M7.31576 24.2302C8.18709 25.0654 17.6072 33.8333 29 33.8333C40.3929 33.8333 49.8128 25.0654 50.6843 24.2302M7.31576 24.2302C7.25 25.3581 7.25 26.744 7.25 28.5167V39.15C7.25 43.2105 7.25 45.2405 8.0402 46.7915C8.73528 48.1557 9.84439 49.2647 11.2086 49.9598C12.7594 50.75 14.7896 50.75 18.85 50.75H39.15C43.2105 50.75 45.2405 50.75 46.7915 49.9598C48.1557 49.2647 49.2647 48.1557 49.9598 46.7915C50.75 45.2405 50.75 43.2105 50.75 39.15V28.5167C50.75 26.744 50.75 25.3581 50.6843 24.2302M7.31576 24.2302C7.40063 22.7749 7.595 21.749 8.0402 20.8752C8.73528 19.5111 9.84439 18.402 11.2086 17.7069C12.7594 16.9167 14.7896 16.9167 18.85 16.9167H39.15C43.2105 16.9167 45.2405 16.9167 46.7915 17.7069C48.1557 18.402 49.2647 19.5111 49.9598 20.8752C50.4049 21.749 50.5994 22.7749 50.6843 24.2302" stroke="white" stroke-width="3" stroke-linecap="round" stroke-linejoin="round"/>
</svg>
