<svg width="55" height="55" viewBox="0 0 55 55" fill="none" xmlns="http://www.w3.org/2000/svg">
<path d="M8.66665 22.9166V23.4166H9.16665H45.8333H46.3333V22.9166V11.4583C46.3333 9.91653 45.0835 8.66665 43.5416 8.66665H11.4583C9.91653 8.66665 8.66665 9.91653 8.66665 11.4583V22.9166ZM9.16665 27H8.66665V27.5V43.5416C8.66665 45.0835 9.91653 46.3333 11.4583 46.3333H43.5416C45.0835 46.3333 46.3333 45.0835 46.3333 43.5416V27.5V27H45.8333H9.16665ZM32.4369 34.9706L32.0833 34.6171L31.7298 34.9706L26.4752 40.2252L24.1835 42.5169C23.4839 43.2165 22.3494 43.2165 21.6497 42.5168C20.9501 41.8172 20.9501 40.6827 21.6497 39.9831L21.2962 39.6295L21.6497 39.9831L22.321 39.3119L22.6745 38.9583L22.321 38.6048L20.9785 37.2623L20.625 36.9087L20.2714 37.2623L15.0169 42.5169C14.3172 43.2165 13.1828 43.2165 12.4831 42.5168C11.7834 41.8172 11.7834 40.6827 12.4831 39.9831L12.1295 39.6295L12.4831 39.9831L19.358 33.1081C19.358 33.1081 19.3581 33.1081 19.3581 33.1081C19.6941 32.7721 20.1499 32.5833 20.625 32.5833C21.1001 32.5833 21.5558 32.7721 21.8919 33.1081C21.8919 33.1081 21.8919 33.1081 21.8919 33.1081L24.8548 36.071L25.2083 36.4245L25.5619 36.071L30.8164 30.8164C31.1524 30.4805 31.6082 30.2916 32.0833 30.2916C32.5584 30.2916 33.0143 30.4805 33.3502 30.8164L42.5169 39.9831C43.2165 40.6827 43.2165 41.8172 42.5169 42.5169C41.8172 43.2165 40.6827 43.2165 39.9831 42.5169L32.4369 34.9706ZM5.08331 11.4583C5.08331 7.93751 7.93751 5.08331 11.4583 5.08331H43.5416C47.0626 5.08331 49.9166 7.9375 49.9166 11.4583V43.5416C49.9166 47.0626 47.0626 49.9166 43.5416 49.9166H11.4583C7.9375 49.9166 5.08331 47.0626 5.08331 43.5416V11.4583ZM25.7083 16.0416C25.7083 15.0521 26.5104 14.25 27.5 14.25H38.9583C39.9478 14.25 40.75 15.0521 40.75 16.0416C40.75 17.0312 39.9478 17.8333 38.9583 17.8333H27.5C26.5104 17.8333 25.7083 17.0312 25.7083 16.0416ZM19.5521 16.0416C19.5521 17.9804 17.9804 19.5521 16.0416 19.5521C14.1029 19.5521 12.5312 17.9804 12.5312 16.0416C12.5312 14.1029 14.1029 12.5312 16.0416 12.5312C17.9804 12.5312 19.5521 14.1029 19.5521 16.0416Z" fill="white" stroke="#394DFD"/>
</svg>
