<svg width="350" height="226" viewBox="0 0 350 226" fill="none" xmlns="http://www.w3.org/2000/svg">
<g clip-path="url(#clip0_431_1718)">
<path d="M9.26721 225.502C9.26721 225.778 9.51403 226 9.82139 226H349.446C349.753 226 350 225.778 350 225.502C350 225.225 349.753 225.003 349.446 225.003H9.82139C9.51403 225.003 9.26721 225.225 9.26721 225.502Z" fill="#3F3D58"/>
<path d="M118.02 39.8648H9.09495C4.94098 39.8648 1.56006 36.8231 1.56006 33.0859C1.56006 29.3487 4.94098 26.307 9.09495 26.307H118.02C122.174 26.307 125.555 29.3487 125.555 33.0859C125.555 36.8231 122.174 39.8648 118.02 39.8648ZM9.09495 27.1449C5.45324 27.1449 2.49144 29.8096 2.49144 33.0859C2.49144 36.3623 5.45324 39.0269 9.09495 39.0269H118.02C121.662 39.0269 124.624 36.3623 124.624 33.0859C124.624 29.8096 121.662 27.1449 118.02 27.1449H9.09495Z" fill="#E2E3E4"/>
<path d="M118.02 119.197H9.09502C5.06678 119.197 1.79297 116.251 1.79297 112.627C1.79297 109.003 5.06678 106.058 9.09502 106.058H118.02C122.049 106.058 125.322 109.003 125.322 112.627C125.322 116.251 122.049 119.197 118.02 119.197Z" fill="#394DFD"/>
<path d="M82.325 13.1389H7.30205C3.27381 13.1389 0 10.1935 0 6.56943C0 2.94535 3.27381 0 7.30205 0H82.325C86.3532 0 89.627 2.94535 89.627 6.56943C89.627 10.1935 86.3532 13.1389 82.325 13.1389Z" fill="#E2E3E4"/>
<path d="M118.02 66.3772H9.09495C4.94098 66.3772 1.56006 63.3354 1.56006 59.5982C1.56006 55.861 4.94098 52.8193 9.09495 52.8193H118.02C122.174 52.8193 125.555 55.861 125.555 59.5982C125.555 63.3354 122.174 66.3772 118.02 66.3772ZM9.09495 53.6573C5.45324 53.6573 2.49144 56.3219 2.49144 59.5982C2.49144 62.8746 5.45324 65.5392 9.09495 65.5392H118.02C121.662 65.5392 124.624 62.8746 124.624 59.5982C124.624 56.3219 121.662 53.6573 118.02 53.6573H9.09495Z" fill="#E2E3E4"/>
<path d="M118.02 92.8938H9.09495C4.94098 92.8938 1.56006 89.852 1.56006 86.1148C1.56006 82.3776 4.94098 79.3359 9.09495 79.3359H118.02C122.174 79.3359 125.555 82.3776 125.555 86.1148C125.555 89.852 122.174 92.8938 118.02 92.8938ZM9.09495 80.1739C5.45324 80.1739 2.49144 82.8385 2.49144 86.1148C2.49144 89.3912 5.45324 92.0558 9.09495 92.0558H118.02C121.662 92.0558 124.624 89.3912 124.624 86.1148C124.624 82.8385 121.662 80.1739 118.02 80.1739H9.09495Z" fill="#E2E3E4"/>
<path d="M5.35078 21.4386H33.8977C34.5776 21.4386 35.1318 21.933 35.1318 22.5489C35.1318 23.1606 34.5776 23.6591 33.8977 23.6591H5.35078C4.67087 23.6591 4.1167 23.1647 4.1167 22.5489C4.1167 21.9372 4.67087 21.4386 5.35078 21.4386Z" fill="#E2E3E4"/>
<path d="M5.35078 48.5793H33.8977C34.5776 48.5793 35.1318 49.0737 35.1318 49.6854C35.1318 50.2971 34.5776 50.7957 33.8977 50.7957H5.35078C4.67087 50.7957 4.1167 50.3013 4.1167 49.6896C4.1167 49.0779 4.67087 48.5793 5.35078 48.5793Z" fill="#E2E3E4"/>
<path d="M5.35078 75.7244H33.8977C34.5776 75.7244 35.1318 76.2187 35.1318 76.8346C35.1318 77.4463 34.5776 77.9407 33.8977 77.9407H5.35078C4.67087 77.9407 4.1167 77.4463 4.1167 76.8304C4.1167 76.2187 4.67087 75.7244 5.35078 75.7244Z" fill="#E2E3E4"/>
<path d="M208.201 55.4128L197.789 58.4964V45.0098H207.237L208.201 55.4128Z" fill="#9F616A"/>
<path d="M199.079 48.7428C204.809 48.7428 209.454 44.5636 209.454 39.4082C209.454 34.2529 204.809 30.0736 199.079 30.0736C193.348 30.0736 188.703 34.2529 188.703 39.4082C188.703 44.5636 193.348 48.7428 199.079 48.7428Z" fill="#9F616A"/>
<path d="M201.929 38.4823C200.192 38.4362 199.051 36.8567 198.375 35.4154C197.7 33.9742 197.006 32.3193 195.395 31.7243C194.077 31.2383 191.753 34.5272 190.715 33.6516C189.63 32.7382 190.687 28.05 191.837 27.2078C192.987 26.3657 194.561 26.2023 196.042 26.1395C199.656 25.9886 203.293 26.2526 206.837 26.9188C209.03 27.3293 211.284 27.9494 212.868 29.3739C214.87 31.1839 215.382 33.9113 215.527 36.4629C215.676 39.073 215.508 41.8047 214.097 44.0881C212.686 46.3715 209.734 48.0557 206.902 47.4734C206.618 46.0908 206.907 44.6705 207.019 43.2627C207.126 41.8592 207.014 40.3425 206.059 39.2239C205.109 38.1052 203.07 37.6611 201.961 38.6541" fill="#2F2E43"/>
<path d="M214.693 41.7168C215.732 41.0339 216.975 40.4599 218.251 40.6023C219.63 40.7532 220.798 41.7754 221.152 42.9863C221.506 44.1971 221.11 45.5294 220.254 46.5182C219.401 47.5069 218.13 48.1605 216.789 48.4873C216.011 48.6758 215.159 48.7555 214.418 48.4706C213.329 48.0474 212.737 46.7947 213.166 45.7975" fill="#2F2E43"/>
<path d="M174.988 129.545C174.294 132.612 175.566 135.415 177.82 135.804C180.074 136.194 182.463 134.02 183.152 130.953C183.445 129.729 183.399 128.464 183.017 127.258L191.6 79.1809L180.865 77.3625L176.721 126.172C175.841 127.161 175.249 128.318 174.988 129.549V129.545Z" fill="#9F616A"/>
<path d="M197.677 52.3082H190.351C185.173 53.0163 183.767 55.5008 182.588 60.0927C180.791 67.0978 178.495 76.4241 178.951 76.5623C179.682 76.7802 192.154 82.0592 198.51 80.8526L197.677 52.3082Z" fill="#E2E3E4"/>
<path d="M204.76 205.445H195.008V217.893H204.76V205.445Z" fill="#9F616A"/>
<path d="M185.513 225.426C184.488 225.426 183.576 225.405 182.886 225.346C180.297 225.133 177.824 223.411 176.581 222.405C176.022 221.953 175.845 221.232 176.134 220.612C176.343 220.168 176.758 219.833 177.275 219.703L184.121 217.943L195.204 211.215L195.33 211.416C195.376 211.491 196.466 213.255 196.829 214.445C196.969 214.897 196.932 215.274 196.722 215.568C196.578 215.769 196.373 215.886 196.21 215.953C196.41 216.142 197.039 216.527 198.976 216.804C201.803 217.206 202.399 214.571 202.422 214.462L202.441 214.374L202.525 214.323C203.871 213.544 204.699 213.188 204.984 213.263C205.161 213.309 205.459 213.393 206.264 220.57C206.343 220.796 206.907 222.447 206.525 224.027C206.111 225.744 197.765 225.154 196.093 225.02C196.047 225.024 189.797 225.426 185.518 225.426H185.513Z" fill="#2F2E43"/>
<path d="M232.527 195.666L224.253 200.308L231.575 210.87L239.849 206.228L232.527 195.666Z" fill="#9F616A"/>
<path d="M221.539 223.721C220.393 223.721 219.341 223.595 218.591 223.478C217.855 223.361 217.278 222.833 217.157 222.171C217.073 221.693 217.227 221.211 217.59 220.855L222.363 216.104L227.812 205.119L228.035 205.228C228.119 205.269 230.08 206.246 231.09 207.084C231.477 207.402 231.668 207.741 231.658 208.089C231.654 208.332 231.551 208.525 231.449 208.663C231.728 208.73 232.487 208.755 234.294 208.068C236.93 207.067 235.887 204.545 235.84 204.44L235.803 204.356L235.845 204.277C236.53 202.974 237.018 202.278 237.307 202.207C237.489 202.161 237.787 202.09 242.691 207.8C242.891 207.951 244.339 209.086 244.945 210.607C245.601 212.262 238.173 215.735 236.679 216.414C236.632 216.448 228.86 221.53 225.665 222.975C224.398 223.549 222.899 223.725 221.534 223.725L221.539 223.721Z" fill="#2F2E43"/>
<path d="M211.941 101.353H184.638L182.16 124.203L193.001 208.634H206.939L201.365 159.87L223.975 203.895L236.362 196.094L218.708 154.993C218.708 154.993 225.013 119.188 220.058 110.268C215.103 101.353 211.941 101.353 211.941 101.353Z" fill="#2F2E43"/>
<path d="M225.525 102.744H182.16L195.171 52.3082H214.065L225.525 102.744Z" fill="#E2E3E4"/>
<path d="M229.428 129.545C230.122 132.612 228.85 135.415 226.596 135.804C224.342 136.194 221.953 134.02 221.264 130.953C220.971 129.729 221.017 128.464 221.399 127.258L212.817 79.1809L223.551 77.3625L227.695 126.172C228.576 127.161 229.167 128.318 229.428 129.549V129.545Z" fill="#9F616A"/>
<path d="M206.739 52.3082H214.065C219.243 53.0163 220.649 55.5008 221.828 60.0927C223.625 67.0978 225.921 76.4241 225.465 76.5623C224.734 76.7802 212.262 82.0592 205.906 80.8526L206.739 52.3082Z" fill="#E2E3E4"/>
</g>
<defs>
<clipPath id="clip0_431_1718">
<rect width="350" height="226" fill="white"/>
</clipPath>
</defs>
</svg>
