<svg width="69" height="69" viewBox="0 0 69 69" fill="none" xmlns="http://www.w3.org/2000/svg">
<path d="M46 28.75L53.4083 24.305C55.6885 22.9368 56.8287 22.2528 57.7668 22.3402C58.5847 22.4165 59.3311 22.839 59.8172 23.5012C60.375 24.2606 60.375 25.5902 60.375 28.2495V40.7505C60.375 43.4096 60.375 44.7393 59.8172 45.4989C59.3311 46.161 58.5847 46.5836 57.7668 46.6598C56.8287 46.7472 55.6885 46.0632 53.4083 44.695L46 40.25M17.825 51.75H36.8C40.0203 51.75 41.6306 51.75 42.8605 51.1232C43.9424 50.5721 44.8221 49.6924 45.3732 48.6105C46 47.3806 46 45.7703 46 42.55V26.45C46 23.2297 46 21.6195 45.3732 20.3896C44.8221 19.3076 43.9424 18.428 42.8605 17.8767C41.6306 17.25 40.0203 17.25 36.8 17.25H17.825C14.6047 17.25 12.9945 17.25 11.7646 17.8767C10.6826 18.428 9.80297 19.3076 9.25172 20.3896C8.625 21.6195 8.625 23.2297 8.625 26.45V42.55C8.625 45.7703 8.625 47.3806 9.25172 48.6105C9.80297 49.6924 10.6826 50.5721 11.7646 51.1232C12.9945 51.75 14.6047 51.75 17.825 51.75Z" stroke="white" stroke-width="3" stroke-linecap="round" stroke-linejoin="round"/>
</svg>
