<svg width="51" height="51" viewBox="0 0 51 51" fill="none" xmlns="http://www.w3.org/2000/svg">
<path fill-rule="evenodd" clip-rule="evenodd" d="M12.75 2.125C9.22917 2.125 6.375 4.97919 6.375 8.5V42.5C6.375 46.0209 9.22919 48.875 12.75 48.875H40.375C43.8959 48.875 46.75 46.0209 46.75 42.5V21.25C46.75 20.6864 46.526 20.1459 46.1276 19.7474L29.1276 2.74746C28.9242 2.54409 28.6839 2.38616 28.4225 2.28029C28.1716 2.1787 27.901 2.125 27.625 2.125H12.75ZM25.5 6.375H12.75C11.5764 6.375 10.625 7.32638 10.625 8.5V42.5C10.625 43.6736 11.5764 44.625 12.75 44.625H40.375C41.5486 44.625 42.5 43.6736 42.5 42.5V23.375H27.625C26.4514 23.375 25.5 22.4236 25.5 21.25V6.375ZM39.4948 19.1251L29.75 9.38026V19.1251H39.4948Z" fill="white"/>
</svg>
