<svg width="29" height="30" viewBox="0 0 29 30" fill="none" xmlns="http://www.w3.org/2000/svg">
<path d="M19.2014 9.33656V8.37502C19.2014 7.02875 19.2014 6.3556 18.9407 5.84139C18.7115 5.38907 18.3456 5.02133 17.8957 4.79088C17.3842 4.52887 16.7144 4.52887 15.3751 4.52887H13.462C12.1227 4.52887 11.453 4.52887 10.9415 4.79088C10.4915 5.02133 10.1257 5.38907 9.8964 5.84139C9.63575 6.3556 9.63575 7.02875 9.63575 8.37502V9.33656M3.68976 12.9739C4.12087 13.3893 8.78168 17.75 14.4186 17.75C20.0555 17.75 24.7162 13.3893 25.1474 12.9739M3.68976 12.9739C3.65723 13.5349 3.65723 14.2242 3.65723 15.1058V20.3943C3.65723 22.4137 3.65723 23.4233 4.0482 24.1947C4.39211 24.8732 4.94086 25.4248 5.61583 25.7705C6.38315 26.1635 7.38763 26.1635 9.39661 26.1635H19.4405C21.4495 26.1635 22.4539 26.1635 23.2213 25.7705C23.8963 25.4248 24.445 24.8732 24.7889 24.1947C25.1799 23.4233 25.1799 22.4137 25.1799 20.3943V15.1058C25.1799 14.2242 25.1799 13.5349 25.1474 12.9739M3.68976 12.9739C3.73175 12.2501 3.82793 11.7399 4.0482 11.3053C4.39211 10.6269 4.94086 10.0753 5.61583 9.72957C6.38315 9.33656 7.38763 9.33656 9.39661 9.33656H19.4405C21.4495 9.33656 22.4539 9.33656 23.2213 9.72957C23.8963 10.0753 24.445 10.6269 24.7889 11.3053C25.0092 11.7399 25.1054 12.2501 25.1474 12.9739" stroke="black" stroke-linecap="round" stroke-linejoin="round"/>
</svg>
