<svg width="25" height="23" viewBox="0 0 25 23" fill="none" xmlns="http://www.w3.org/2000/svg">
<path d="M12.4442 3.27883V3.12883H12.2942H6.18546C5.55604 3.12883 5.01734 3.59006 5.01734 4.19229V18.8077C5.01734 19.4099 5.55605 19.8711 6.18546 19.8711H19.421C20.0505 19.8711 20.5891 19.4099 20.5891 18.8077V10.5865V10.4365H20.4391H13.3123C12.8171 10.4365 12.4442 10.0798 12.4442 9.67306V3.27883ZM18.9993 8.90962H19.3911L19.0995 8.64797L14.4306 4.45903L14.1804 4.23458V4.57068V8.75962V8.90962H14.3304H18.9993ZM3.2811 4.19229C3.2811 2.77655 4.56571 1.6019 6.18546 1.6019H13.3123C13.4272 1.6019 13.5394 1.62197 13.6432 1.65965C13.7512 1.69892 13.8496 1.75713 13.932 1.83112L22.077 9.13878C22.2383 9.28355 22.3254 9.47616 22.3254 9.67306V18.8077C22.3254 20.2235 21.0408 21.3981 19.421 21.3981H6.18546C4.56572 21.3981 3.2811 20.2235 3.2811 18.8077V4.19229Z" fill="black" stroke="#E8ECF4" stroke-width="0.3"/>
</svg>
