<svg width="515" height="323" viewBox="0 0 515 323" fill="none" xmlns="http://www.w3.org/2000/svg">
<g clip-path="url(#clip0_317_2220)">
<path d="M13.6362 322.288C13.6362 322.683 13.9994 323 14.4517 323H514.185C514.637 323 515 322.683 515 322.288C515 321.892 514.637 321.575 514.185 321.575H14.4517C13.9994 321.575 13.6362 321.892 13.6362 322.288Z" fill="#3F3D58"/>
<path d="M173.658 56.975H13.3825C7.2702 56.975 2.29541 52.6278 2.29541 47.2866C2.29541 41.9454 7.2702 37.5981 13.3825 37.5981H173.658C179.771 37.5981 184.745 41.9454 184.745 47.2866C184.745 52.6278 179.771 56.975 173.658 56.975ZM13.3825 38.7957C8.02395 38.7957 3.66587 42.604 3.66587 47.2866C3.66587 51.9691 8.02395 55.7774 13.3825 55.7774H173.658C179.017 55.7774 183.375 51.9691 183.375 47.2866C183.375 42.604 179.017 38.7957 173.658 38.7957H13.3825Z" fill="#E2E3E4"/>
<path d="M173.658 170.356H13.3826C7.45537 170.356 2.63818 166.147 2.63818 160.967C2.63818 155.788 7.45537 151.578 13.3826 151.578H173.658C179.586 151.578 184.403 155.788 184.403 160.967C184.403 166.147 179.586 170.356 173.658 170.356Z" fill="#394DFD"/>
<path d="M121.135 18.7781H10.7444C4.81718 18.7781 0 14.5686 0 9.38905C0 4.2095 4.81718 0 10.7444 0H121.135C127.063 0 131.88 4.2095 131.88 9.38905C131.88 14.5686 127.063 18.7781 121.135 18.7781Z" fill="#E2E3E4"/>
<path d="M173.658 94.8666H13.3825C7.2702 94.8666 2.29541 90.5194 2.29541 85.1782C2.29541 79.837 7.2702 75.4897 13.3825 75.4897H173.658C179.771 75.4897 184.745 79.837 184.745 85.1782C184.745 90.5194 179.771 94.8666 173.658 94.8666ZM13.3825 76.6873C8.02395 76.6873 3.66587 80.4956 3.66587 85.1782C3.66587 89.8607 8.02395 93.669 13.3825 93.669H173.658C179.017 93.669 183.375 89.8607 183.375 85.1782C183.375 80.4956 179.017 76.6873 173.658 76.6873H13.3825Z" fill="#E2E3E4"/>
<path d="M173.658 132.764H13.3825C7.2702 132.764 2.29541 128.417 2.29541 123.076C2.29541 117.734 7.2702 113.387 13.3825 113.387H173.658C179.771 113.387 184.745 117.734 184.745 123.076C184.745 128.417 179.771 132.764 173.658 132.764ZM13.3825 114.585C8.02395 114.585 3.66587 118.393 3.66587 123.076C3.66587 127.758 8.02395 131.567 13.3825 131.567H173.658C179.017 131.567 183.375 127.758 183.375 123.076C183.375 118.393 179.017 114.585 173.658 114.585H13.3825Z" fill="#E2E3E4"/>
<path d="M7.87348 30.6401H49.8782C50.8787 30.6401 51.6941 31.3467 51.6941 32.2269C51.6941 33.1012 50.8787 33.8137 49.8782 33.8137H7.87348C6.87304 33.8137 6.05762 33.1072 6.05762 32.2269C6.05762 31.3527 6.87304 30.6401 7.87348 30.6401Z" fill="#E2E3E4"/>
<path d="M7.87348 69.4299H49.8782C50.8787 69.4299 51.6941 70.1365 51.6941 71.0107C51.6941 71.885 50.8787 72.5975 49.8782 72.5975H7.87348C6.87304 72.5975 6.05762 71.891 6.05762 71.0167C6.05762 70.1425 6.87304 69.4299 7.87348 69.4299Z" fill="#E2E3E4"/>
<path d="M7.87348 108.226H49.8782C50.8787 108.226 51.6941 108.932 51.6941 109.812C51.6941 110.687 50.8787 111.393 49.8782 111.393H7.87348C6.87304 111.393 6.05762 110.687 6.05762 109.806C6.05762 108.932 6.87304 108.226 7.87348 108.226Z" fill="#E2E3E4"/>
<path d="M306.354 79.1964L291.032 83.6035V64.3284H304.935L306.354 79.1964Z" fill="#9F616A"/>
<path d="M292.93 69.6636C301.362 69.6636 308.197 63.6906 308.197 56.3225C308.197 48.9544 301.362 42.9814 292.93 42.9814C284.498 42.9814 277.663 48.9544 277.663 56.3225C277.663 63.6906 284.498 69.6636 292.93 69.6636Z" fill="#9F616A"/>
<path d="M297.124 54.9991C294.568 54.9332 292.889 52.6758 291.896 50.6159C290.902 48.5561 289.881 46.1909 287.51 45.3406C285.571 44.646 282.152 49.3465 280.624 48.095C279.027 46.7897 280.582 40.0892 282.275 38.8856C283.967 37.6821 286.284 37.4485 288.463 37.3587C293.78 37.1431 299.132 37.5204 304.346 38.4725C307.574 39.0593 310.89 39.9455 313.22 41.9814C316.167 44.5682 316.92 48.4663 317.133 52.1129C317.352 55.8434 317.105 59.7475 315.029 63.0109C312.953 66.2743 308.608 68.6815 304.442 67.8491C304.024 65.8731 304.449 63.8432 304.614 61.8313C304.771 59.8253 304.607 57.6577 303.202 56.059C301.804 54.4602 298.803 53.8255 297.172 55.2446" fill="#2F2E43"/>
<path d="M315.906 59.6219C317.434 58.6458 319.264 57.8255 321.141 58.0291C323.17 58.2446 324.89 59.7057 325.41 61.4362C325.931 63.1667 325.349 65.0709 324.088 66.484C322.834 67.8972 320.963 68.8313 318.99 69.2983C317.845 69.5678 316.591 69.6816 315.502 69.2744C313.898 68.6696 313.028 66.8792 313.659 65.4541" fill="#2F2E43"/>
<path d="M257.483 185.146C256.462 189.53 258.333 193.535 261.649 194.092C264.966 194.649 268.481 191.541 269.495 187.158C269.927 185.41 269.858 183.601 269.296 181.877L281.925 113.166L266.131 110.567L260.032 180.326C258.737 181.739 257.867 183.392 257.483 185.152V185.146Z" fill="#9F616A"/>
<path d="M290.868 74.7593H280.089C272.469 75.7712 270.4 79.3221 268.666 85.8848C266.021 95.8966 262.643 109.226 263.314 109.423C264.39 109.735 282.741 117.279 292.094 115.555L290.868 74.7593Z" fill="#E2E3E4"/>
<path d="M301.29 293.624H286.941V311.414H301.29V293.624Z" fill="#9F616A"/>
<path d="M272.969 322.18C271.462 322.18 270.119 322.15 269.105 322.066C265.295 321.761 261.656 319.3 259.826 317.863C259.004 317.216 258.744 316.186 259.169 315.3C259.477 314.665 260.087 314.186 260.848 314L270.92 311.485L287.229 301.869L287.414 302.156C287.482 302.264 289.086 304.785 289.62 306.486C289.826 307.132 289.771 307.671 289.463 308.09C289.25 308.378 288.949 308.545 288.709 308.641C289.004 308.911 289.929 309.462 292.779 309.857C296.939 310.432 297.816 306.665 297.85 306.51L297.877 306.384L298.001 306.312C299.981 305.198 301.201 304.689 301.619 304.797C301.879 304.863 302.318 304.983 303.503 315.24C303.62 315.563 304.449 317.923 303.887 320.18C303.277 322.635 290.998 321.791 288.538 321.599C288.469 321.605 279.273 322.18 272.976 322.18H272.969Z" fill="#2F2E43"/>
<path d="M342.148 279.646L329.973 286.281L340.746 301.377L352.921 294.741L342.148 279.646Z" fill="#9F616A"/>
<path d="M325.979 319.743C324.293 319.743 322.745 319.563 321.641 319.395C320.559 319.228 319.709 318.473 319.531 317.527C319.408 316.845 319.634 316.156 320.168 315.647L327.192 308.857L335.209 293.156L335.538 293.312C335.661 293.372 338.546 294.767 340.033 295.965C340.602 296.42 340.883 296.905 340.869 297.402C340.862 297.749 340.711 298.025 340.561 298.222C340.972 298.318 342.089 298.354 344.747 297.372C348.626 295.941 347.091 292.336 347.022 292.186L346.968 292.067L347.029 291.953C348.037 290.091 348.756 289.097 349.181 288.995C349.448 288.929 349.887 288.827 357.102 296.989C357.397 297.204 359.528 298.827 360.419 301.001C361.385 303.366 350.455 308.33 348.256 309.3C348.187 309.348 336.751 316.611 332.05 318.677C330.186 319.497 327.98 319.749 325.972 319.749L325.979 319.743Z" fill="#2F2E43"/>
<path d="M311.856 144.854H271.681L268.036 177.512L283.988 298.18H304.497L296.295 228.487L329.563 291.408L347.79 280.258L321.813 221.517C321.813 221.517 331.091 170.344 323.8 157.596C316.509 144.854 311.856 144.854 311.856 144.854Z" fill="#2F2E43"/>
<path d="M331.844 146.842H268.036L287.181 74.7593H314.981L331.844 146.842Z" fill="#E2E3E4"/>
<path d="M337.587 185.146C338.608 189.53 336.737 193.535 333.421 194.092C330.104 194.649 326.589 191.541 325.575 187.158C325.143 185.41 325.211 183.601 325.773 181.877L313.145 113.166L328.939 110.567L335.038 180.326C336.333 181.739 337.203 183.392 337.587 185.152V185.146Z" fill="#9F616A"/>
<path d="M304.202 74.7593H314.981C322.601 75.7712 324.67 79.3221 326.404 85.8848C329.049 95.8966 332.427 109.226 331.755 109.423C330.68 109.735 312.329 117.279 302.976 115.555L304.202 74.7593Z" fill="#E2E3E4"/>
</g>
<defs>
<clipPath id="clip0_317_2220">
<rect width="515" height="323" fill="white"/>
</clipPath>
</defs>
</svg>
