<svg width="653" height="386" viewBox="0 0 653 386" fill="none" xmlns="http://www.w3.org/2000/svg">
<g clip-path="url(#clip0_317_2321)">
<path d="M203.628 227.612V21.0605C203.628 10.1846 212.477 1.33643 223.353 1.33643H632.904C643.78 1.33643 652.628 10.1846 652.628 21.0605V227.612C652.628 238.488 643.78 247.336 632.904 247.336H223.353C212.477 247.336 203.628 238.488 203.628 227.612ZM650.628 21.0605C650.628 11.2718 642.693 3.33643 632.904 3.33643H223.353C213.564 3.33643 205.628 11.272 205.628 21.061V227.612C205.628 237.401 213.564 245.336 223.353 245.336H501.924C584.051 245.336 650.628 178.759 650.628 96.6316L650.628 21.0605Z" fill="#E6E6E6"/>
<path d="M347.915 38.9072H118.381C111.575 38.9072 106.041 44.4415 106.041 51.2476V135.567C106.041 142.373 111.575 147.907 118.381 147.907H347.915C354.721 147.907 360.255 142.373 360.255 135.567V51.2476C360.255 44.4415 354.721 38.9072 347.915 38.9072Z" fill="white"/>
<path d="M347.915 38.9072H118.381C111.575 38.9072 106.041 44.4415 106.041 51.2476V135.567C106.041 142.373 111.575 147.907 118.381 147.907H347.915C354.721 147.907 360.255 142.373 360.255 135.567V51.2476C360.255 44.4415 354.721 38.9072 347.915 38.9072ZM358.958 135.567C358.958 141.659 354.007 146.61 347.915 146.61H118.381C112.289 146.61 107.339 141.659 107.339 135.567V51.2476C107.339 45.1553 112.289 40.2048 118.381 40.2048H347.915C354.007 40.2048 358.958 45.1553 358.958 51.2476V135.567Z" fill="#3F3D56"/>
<path d="M129.128 77.3364H333.128C335.061 77.3364 336.628 78.9034 336.628 80.8364C336.628 82.7694 335.061 84.3364 333.128 84.3364H129.128C127.195 84.3364 125.628 82.7694 125.628 80.8364C125.628 78.9034 127.195 77.3364 129.128 77.3364Z" fill="#394DFD"/>
<path d="M129.128 100.336H203.128C205.061 100.336 206.628 101.903 206.628 103.836C206.628 105.769 205.061 107.336 203.128 107.336H129.128C127.195 107.336 125.628 105.769 125.628 103.836C125.628 101.903 127.195 100.336 129.128 100.336Z" fill="#394DFD"/>
<path d="M574.581 66.6436H434.581C432.375 66.6436 430.581 64.8491 430.581 62.6436C430.581 60.438 432.375 58.6436 434.581 58.6436H574.581C576.787 58.6436 578.581 60.438 578.581 62.6436C578.581 64.8491 576.787 66.6436 574.581 66.6436Z" fill="#E6E6E6"/>
<path d="M601.122 153.392H406.041V152.392C470.273 162.242 535.365 161.432 601.122 152.392V153.392Z" fill="#E6E6E6"/>
<path d="M574.581 117.644H434.581C432.375 117.644 430.581 115.849 430.581 113.644C430.581 111.438 432.375 109.644 434.581 109.644H574.581C576.787 109.644 578.581 111.438 578.581 113.644C578.581 115.849 576.787 117.644 574.581 117.644Z" fill="#E6E6E6"/>
<path d="M602.122 166.392H407.041V167.392H602.122V166.392Z" fill="#E6E6E6"/>
<path d="M574.581 91.3364H434.581C432.375 91.3364 430.581 89.542 430.581 87.3364C430.581 85.1309 432.375 83.3364 434.581 83.3364H574.581C576.787 83.3364 578.581 85.1309 578.581 87.3364C578.581 89.542 576.787 91.3364 574.581 91.3364Z" fill="#E6E6E6"/>
<path d="M602.122 180.392C534.785 175.811 469.39 175.082 407.041 180.392V179.392H602.122V180.392Z" fill="#E6E6E6"/>
<path d="M332.893 164.118L324.663 160.22C328.039 164.931 330.947 172.288 332.504 178.142C335.141 172.689 339.391 166.016 343.598 162.03L334.9 164.268C340.26 138 360.419 119.142 383.504 119.142V117.142C359.391 117.142 338.365 136.79 332.893 164.118Z" fill="#3F3D56"/>
<path d="M370.772 204.142H318.772C316.566 204.142 314.772 202.348 314.772 200.142C314.772 197.937 316.566 196.142 318.772 196.142H370.772C372.978 196.142 374.772 197.937 374.772 200.142C374.772 202.348 372.978 204.142 370.772 204.142Z" fill="#394DFD"/>
<path d="M237.628 117.336C245.36 117.336 251.628 111.068 251.628 103.336C251.628 95.6044 245.36 89.3364 237.628 89.3364C229.896 89.3364 223.628 95.6044 223.628 103.336C223.628 111.068 229.896 117.336 237.628 117.336Z" fill="#394DFD"/>
<path d="M244.91 95.1386C244.243 94.7484 243.224 94.9507 242.858 95.6768C241.194 98.9733 239.53 102.27 237.866 105.567C236.524 103.464 234.806 101.627 232.814 100.088C232.172 99.5928 231.134 99.9908 230.762 100.627C230.309 101.401 230.657 102.182 231.3 102.679C233.623 104.473 235.414 106.886 236.621 109.548C237.079 110.56 238.732 110.496 239.211 109.548C241.29 105.429 243.369 101.31 245.448 97.1909C245.813 96.468 245.639 95.5651 244.91 95.1386Z" fill="white"/>
<path d="M405.628 76.3364C413.36 76.3364 419.628 70.0684 419.628 62.3364C419.628 54.6044 413.36 48.3364 405.628 48.3364C397.896 48.3364 391.628 54.6044 391.628 62.3364C391.628 70.0684 397.896 76.3364 405.628 76.3364Z" fill="#394DFD"/>
<path d="M412.91 54.1386C412.243 53.7484 411.224 53.9507 410.858 54.6768C409.194 57.9733 407.53 61.2699 405.866 64.5665C404.524 62.4636 402.806 60.6274 400.814 59.0884C400.172 58.5928 399.134 58.9908 398.762 59.6265C398.309 60.4014 398.657 61.1819 399.3 61.6788C401.623 63.4735 403.414 65.8856 404.621 68.5477C405.079 69.5597 406.732 69.4958 407.211 68.5477C409.29 64.4287 411.369 60.3098 413.448 56.1909C413.813 55.468 413.639 54.5651 412.91 54.1386Z" fill="white"/>
<path d="M606.628 99.3364C614.36 99.3364 620.628 93.0684 620.628 85.3364C620.628 77.6044 614.36 71.3364 606.628 71.3364C598.896 71.3364 592.628 77.6044 592.628 85.3364C592.628 93.0684 598.896 99.3364 606.628 99.3364Z" fill="#394DFD"/>
<path d="M613.91 77.1386C613.243 76.7484 612.224 76.9507 611.858 77.6768C610.194 80.9733 608.53 84.2699 606.866 87.5665C605.524 85.4636 603.806 83.6274 601.814 82.0884C601.172 81.5928 600.134 81.9908 599.762 82.6265C599.309 83.4014 599.657 84.182 600.3 84.6788C602.623 86.4735 604.414 88.8856 605.621 91.5477C606.079 92.5597 607.732 92.4958 608.211 91.5477C610.29 87.4287 612.369 83.3098 614.448 79.1909C614.813 78.468 614.639 77.5651 613.91 77.1386Z" fill="white"/>
<path d="M292.844 172.917H259.123C257.029 172.917 255.326 171.214 255.326 169.12C250.867 156.088 250.955 143.319 255.326 130.797C255.326 128.703 257.029 127 259.123 127H292.844C294.938 127 296.641 128.703 296.641 130.797V169.12C296.641 171.214 294.938 172.917 292.844 172.917Z" fill="#E6E6E6"/>
<path d="M266.348 128.131C260.885 128.131 256.457 132.56 256.457 138.022V168.307C256.457 170.228 258.015 171.786 259.936 171.786H278.584C287.932 171.786 295.51 164.208 295.51 154.86V131.61C295.51 129.689 293.952 128.131 292.031 128.131H266.348Z" fill="white"/>
<path d="M283.837 139.268H268.049C267.651 139.268 267.327 138.944 267.327 138.546C267.327 138.148 267.651 137.824 268.049 137.824H283.837C284.235 137.824 284.559 138.148 284.559 138.546C284.559 138.944 284.235 139.268 283.837 139.268Z" fill="#E6E6E6"/>
<path d="M283.837 154.661H268.049C267.651 154.661 267.327 154.337 267.327 153.939C267.327 153.541 267.651 153.217 268.049 153.217H283.837C284.235 153.217 284.559 153.541 284.559 153.939C284.559 154.337 284.235 154.661 283.837 154.661Z" fill="#E6E6E6"/>
<path d="M292.309 146.97H259.577C259.179 146.97 258.855 146.646 258.855 146.248C258.855 145.85 259.179 145.526 259.577 145.526H292.309C292.707 145.526 293.03 145.85 293.03 146.248C293.03 146.646 292.707 146.97 292.309 146.97Z" fill="#E6E6E6"/>
<path d="M292.695 160.919H279.037C278.639 160.919 278.315 160.595 278.315 160.197C278.315 159.799 278.639 159.476 279.037 159.476H292.695C293.093 159.476 293.416 159.799 293.416 160.197C293.416 160.595 293.093 160.919 292.695 160.919Z" fill="#E6E6E6"/>
<path d="M60.5168 68.0709C61.405 63.9746 61.666 66.9922 63.598 63.2766C62.2719 68.078 64.7189 66.5057 67.9694 70.2706C90.8125 73.8523 92.2519 66.0286 100.706 66.2684L100.749 66.2681C102.609 66.2379 103.565 64.0105 102.443 62.5261C99.6741 58.8607 96.6217 53.205 99.5105 49.6443C104.628 43.3363 100.118 30.4008 97.9125 33.1974C97.9125 22.4103 84.6283 15.3363 79.4752 17.089C69.9536 20.3275 61.1358 24.6954 60.0678 34.4686C59.9011 35.9947 59.6854 37.5119 59.4113 39.0224C58.8545 42.0898 56.5614 42.9044 57.3506 45.9169L59.8183 48.4271C60.9764 52.8479 60.6105 57.489 59.024 61.7748C58.1471 64.1439 58.0255 66.1751 60.5168 68.0709Z" fill="#2F2E41"/>
<path d="M84.298 53.5963C92.206 53.5963 98.6166 47.1857 98.6166 39.2778C98.6166 31.3699 92.206 24.9592 84.298 24.9592C76.3901 24.9592 69.9795 31.3699 69.9795 39.2778C69.9795 47.1857 76.3901 53.5963 84.298 53.5963Z" fill="#A0616A"/>
<path d="M61.9937 365.697L69.3675 365.871L73.4778 332.743L62.5959 332.486L61.9937 365.697Z" fill="#A0616A"/>
<path d="M87.2921 381.081C87.2921 382.327 86.4081 383.337 85.3176 383.337H70.6812C70.6812 383.337 69.2408 377.547 63.3683 375.055L62.963 383.337H55.4126L56.3274 370.02C56.3274 370.02 54.3076 362.896 58.5023 359.254C62.697 355.613 59.2994 356.12 59.2994 356.12L60.9495 347.878L72.359 349.22L72.4429 362.157L77.9799 374.999L86.1012 379.011C86.824 379.368 87.2921 380.181 87.2921 381.081Z" fill="#2F2E41"/>
<path d="M70.103 335.642L75.96 340.125L98.7915 315.772L90.1485 309.155L70.103 335.642Z" fill="#A0616A"/>
<path d="M81.489 362.974C80.7554 363.98 79.4463 364.276 78.565 363.634L66.7359 355.014C66.7359 355.014 68.9816 349.486 65.7029 344.014L60.4982 350.469L54.396 346.022L62.9775 335.799C62.9775 335.799 65.5407 328.852 71.0755 328.379C76.6103 327.906 73.5659 326.315 73.5659 326.315L79.7532 320.625L88.1841 328.429L80.6327 338.935L77.5448 352.574L81.7458 360.599C82.1197 361.313 82.0188 362.247 81.489 362.974Z" fill="#2F2E41"/>
<path d="M49.0027 196.309C49.4472 198.132 48.6283 206.615 49.0862 209.534C50.2504 216.956 60.8876 257.421 59.0526 268.956C52.3292 311.222 61.628 338.336 61.628 338.336H76.628L84.628 210.336L92.4359 220.629L107.714 266.26L80.6878 314.852L94.7994 326.506L136.933 259.515L106.993 147.451L105.184 140.685L64.731 139.556L66.9818 142.929L61.8614 147.988C61.8614 147.988 61.8546 148.002 61.8274 148.029C61.0386 149.131 43.5083 173.794 49.0027 196.309Z" fill="#2F2E41"/>
<path d="M61.8276 148.029C66.5128 149.702 98.1736 147.975 106.993 147.451L105.184 140.685L64.7313 139.556L66.982 142.929L61.8616 147.988C61.8616 147.988 61.8548 148.002 61.8276 148.029Z" fill="#A0616A"/>
<path d="M114.189 93.8429L112.732 101.575L112.379 103.429L104.629 119.337L105.647 142.657C106.299 145.386 78.7802 139.193 64.4843 145.591L53.3564 92.3712L64.6399 67.8419L73.4704 62.9361L74.9422 57.0491H93.6482C94.6445 61.7146 93.5645 64.0134 91.6285 65.3365L96.3144 77.8332L114.189 93.8429Z" fill="#394DFD"/>
<path d="M128.82 48.2388C128.589 50.241 127.924 52.0249 127.006 53.3698L126.005 72.5829L116.877 71.8392L118.875 52.4295C118.288 50.9105 118.048 49.022 118.28 47.0198C118.809 42.4458 121.597 39.0106 124.508 39.3472C127.419 39.6838 129.349 43.6647 128.82 48.2388Z" fill="#A0616A"/>
<path d="M92.4374 68.4299L93.6283 71.3364C93.6283 71.3364 76.2281 69.5932 76.5996 78.6782C76.9166 86.4297 109.669 117.15 111.234 117.867C115.869 119.991 121.256 117.132 122.095 112.103C129.47 93.0761 130.998 75.9218 127.628 60.3364H117.628L114.372 72.6314L114.189 81.9837L108.916 93.2321L91.6283 71.3364L92.4374 68.4299Z" fill="#394DFD"/>
<path d="M34.4644 175.224C35.1074 173.265 35.2545 171.323 34.978 169.68L42.2816 151.405L33.4837 148.184L27.0222 167.069C25.826 168.229 24.7939 169.88 24.151 171.839C22.6822 176.315 23.8003 180.7 26.6483 181.635C29.4963 182.57 32.9957 179.699 34.4644 175.224Z" fill="#A0616A"/>
<path d="M76.5939 68.4399C76.5939 68.4399 65.7913 64.3438 59.6588 69.349C57.1298 71.4132 45.945 85.6365 44.2222 104.785C44.0871 106.286 43.0648 107.577 42.4888 108.98C38.9368 117.636 32.8219 121.623 30.2217 129.026C29.2056 131.919 31.0693 139.401 30.4273 141.897C27.0655 154.966 28.2786 162.417 28.2786 162.417L37.3571 165.44L42.2818 161.959L50.3705 132.422L76.5939 68.4399Z" fill="#394DFD"/>
<path d="M157.844 45.917H124.123C122.029 45.917 120.326 44.2137 120.326 42.12C115.867 29.0884 115.955 16.3191 120.326 3.79696C120.326 1.70328 122.029 0 124.123 0H157.844C159.938 0 161.641 1.70328 161.641 3.79696V42.12C161.641 44.2137 159.938 45.917 157.844 45.917Z" fill="#E6E6E6"/>
<path d="M131.348 1.13135C125.885 1.13135 121.457 5.5596 121.457 11.0221V41.307C121.457 43.2282 123.015 44.7857 124.936 44.7857H143.584C152.932 44.7857 160.51 37.2077 160.51 27.8598V4.61009C160.51 2.68884 158.952 1.13135 157.031 1.13135H131.348Z" fill="white"/>
<path d="M148.837 12.2681H133.049C132.651 12.2681 132.327 11.9442 132.327 11.5462C132.327 11.1482 132.651 10.8245 133.049 10.8245H148.837C149.235 10.8245 149.559 11.1482 149.559 11.5462C149.559 11.9442 149.235 12.2681 148.837 12.2681Z" fill="#E6E6E6"/>
<path d="M148.837 27.6607H133.049C132.651 27.6607 132.327 27.3368 132.327 26.9388C132.327 26.5408 132.651 26.217 133.049 26.217H148.837C149.235 26.217 149.559 26.5408 149.559 26.9388C149.559 27.3368 149.235 27.6607 148.837 27.6607Z" fill="#E6E6E6"/>
<path d="M157.309 19.9695H124.577C124.179 19.9695 123.855 19.6456 123.855 19.2476C123.855 18.8496 124.179 18.5259 124.577 18.5259H157.309C157.707 18.5259 158.03 18.8496 158.03 19.2476C158.03 19.6456 157.707 19.9695 157.309 19.9695Z" fill="#E6E6E6"/>
<path d="M157.695 33.9192H144.037C143.639 33.9192 143.315 33.5953 143.315 33.1973C143.315 32.7993 143.639 32.4756 144.037 32.4756H157.695C158.093 32.4756 158.416 32.7993 158.416 33.1973C158.416 33.5953 158.093 33.9192 157.695 33.9192Z" fill="#E6E6E6"/>
<path d="M167.551 366.84C169.617 366.97 170.759 364.403 169.196 362.907L169.041 362.289C169.061 362.239 169.082 362.19 169.102 362.14C171.192 357.159 178.272 357.193 180.344 362.182C182.182 366.61 184.523 371.046 185.1 375.728C185.358 377.795 185.242 379.9 184.783 381.929C189.091 372.518 191.358 362.242 191.358 351.908C191.358 349.311 191.216 346.715 190.925 344.125C190.686 342.006 190.357 339.901 189.931 337.814C187.625 326.537 182.632 315.796 175.431 306.825C171.969 304.932 169.082 301.974 167.338 298.428C166.711 297.149 166.22 295.774 165.988 294.372C166.382 294.424 167.473 288.423 167.176 288.055C167.725 287.222 168.708 286.808 169.308 285.995C172.29 281.952 176.399 282.658 178.544 288.152C183.126 290.465 183.17 294.3 180.359 297.989C178.57 300.336 178.324 303.511 176.755 306.024C176.916 306.231 177.084 306.431 177.246 306.638C180.207 310.435 182.768 314.518 184.927 318.806C184.317 314.04 185.217 308.298 186.753 304.597C188.501 300.379 191.778 296.827 194.664 293.181C198.13 288.802 205.237 290.713 205.848 296.265C205.853 296.319 205.859 296.372 205.865 296.426C205.436 296.668 205.016 296.925 204.606 297.196C202.267 298.743 203.075 302.37 205.847 302.798L205.91 302.807C205.755 304.351 205.49 305.882 205.103 307.387C208.805 321.703 200.813 326.917 189.401 327.151C189.149 327.28 188.904 327.409 188.652 327.532C189.808 330.787 190.732 334.126 191.416 337.511C192.03 340.501 192.456 343.524 192.695 346.56C192.992 350.39 192.967 354.239 192.644 358.063L192.663 357.927C193.483 353.716 195.77 349.783 199.09 347.057C204.035 342.994 211.022 341.498 216.358 338.233C218.926 336.661 222.217 338.692 221.769 341.67L221.747 341.813C220.953 342.135 220.178 342.51 219.428 342.93C219 343.172 218.58 343.429 218.17 343.7C215.83 345.247 216.639 348.874 219.411 349.302L219.474 349.311C219.519 349.318 219.558 349.324 219.603 349.331C218.24 352.567 216.341 355.57 213.964 358.16C211.65 370.657 201.708 371.843 191.074 368.203H191.068C189.905 373.267 188.206 378.215 186.023 382.93H168.003C167.938 382.729 167.88 382.523 167.822 382.322C169.489 382.426 171.168 382.329 172.808 382.025C171.471 380.385 170.134 378.731 168.797 377.091C168.765 377.059 168.739 377.026 168.713 376.994C168.035 376.154 167.351 375.321 166.672 374.481L166.672 374.48C166.63 371.903 166.939 369.333 167.551 366.84Z" fill="#F2F2F2"/>
<path d="M0 384.476C0 385.136 0.53003 385.666 1.19006 385.666H219.48C220.14 385.666 220.67 385.136 220.67 384.476C220.67 383.816 220.14 383.286 219.48 383.286H1.19006C0.53003 383.286 0 383.816 0 384.476Z" fill="#CCCCCC"/>
<path d="M88.1795 22.3365H85.2645C76.7364 22.346 62.1599 34.4083 67.8003 42.8688C62.9839 55.7159 62.8084 62.4003 64.8529 65.8987C65.6055 67.1865 67.0999 67.7732 68.5878 67.6687C68.7862 67.6548 68.9859 67.6506 69.1871 67.6572C70.6286 67.7049 72.5622 74.4812 73.904 75.0022L77.4657 73.9195L83.308 68.0816L80.3435 59.1777L74.6074 54.6897L75.3889 44.2959C71.5496 35.4718 75.7265 35.0399 78.0771 32.1935L78.3149 41.3255L81.6814 38.0766C84.4235 38.1477 87.6281 39.3365 89.7584 36.8637C93.6281 32.3365 97.6397 37.8025 102.21 38.9073L103.628 37.785C103.677 35.239 103.3 32.7808 102.569 30.5795C102.225 29.5433 101.345 28.6894 101.308 27.6594C101.17 23.794 93.864 20.0447 88.1795 22.3365Z" fill="#2F2E41"/>
</g>
<defs>
<clipPath id="clip0_317_2321">
<rect width="652.628" height="385.666" fill="white"/>
</clipPath>
</defs>
</svg>
