<svg width="30" height="27" viewBox="0 0 30 27" fill="none" xmlns="http://www.w3.org/2000/svg">
<path d="M4.71932 11.2885V11.5385H4.96932H24.6887H24.9387V11.2885V5.75963C24.9387 4.98605 24.2488 4.40386 23.4562 4.40386H6.20178C5.40924 4.40386 4.71932 4.98605 4.71932 5.75963V11.2885ZM4.96932 13.25H4.71932V13.5V21.2404C4.71932 22.014 5.40924 22.5962 6.20178 22.5962H23.4562C24.2488 22.5962 24.9387 22.014 24.9387 21.2404V13.5V13.25H24.6887H4.96932ZM17.4609 17.0892L17.2939 16.9395L17.127 17.0892L14.3011 19.6247L13.0686 20.7304C12.6823 21.077 12.0459 21.077 11.6595 20.7304C11.289 20.398 11.289 19.8713 11.6595 19.5388L11.4926 19.3527L11.6596 19.5388L12.0205 19.2149L12.2279 19.0289L12.0205 18.8428L11.2986 18.195L11.1316 18.0452L10.9647 18.195L8.13877 20.7304C7.75245 21.077 7.11603 21.077 6.7297 20.7304C6.35914 20.398 6.35914 19.8713 6.7297 19.5388L6.56275 19.3527L6.72971 19.5388L10.4271 16.2215C10.6098 16.0576 10.8629 15.9616 11.1316 15.9616C11.4004 15.9616 11.6535 16.0576 11.8362 16.2215L13.4296 17.6512L13.5965 17.801L13.7635 17.6512L16.5894 15.1157C16.7721 14.9519 17.0252 14.8558 17.2939 14.8558C17.5627 14.8558 17.8158 14.9519 17.9984 15.1157L22.9283 19.5388C23.2988 19.8713 23.2988 20.398 22.9283 20.7304C22.542 21.077 21.9055 21.077 21.5193 20.7304L17.4609 17.0892ZM2.75439 5.75963C2.75439 4.09042 4.27165 2.69232 6.20178 2.69232H23.4562C25.3864 2.69232 26.9036 4.09042 26.9036 5.75963V21.2404C26.9036 22.9097 25.3864 24.3077 23.4562 24.3077H6.20178C4.27165 24.3077 2.75439 22.9097 2.75439 21.2404V5.75963ZM13.8465 7.97117C13.8465 7.52336 14.2602 7.1154 14.829 7.1154H20.9913C21.5601 7.1154 21.9738 7.52336 21.9738 7.97117C21.9738 8.41898 21.5601 8.82694 20.9913 8.82694H14.829C14.2602 8.82694 13.8465 8.41898 13.8465 7.97117ZM10.5735 7.97117C10.5735 8.87701 9.746 9.65626 8.6667 9.65626C7.5874 9.65626 6.75989 8.87701 6.75989 7.97117C6.75989 7.06533 7.5874 6.28607 8.6667 6.28607C9.746 6.28607 10.5735 7.06533 10.5735 7.97117Z" fill="black" stroke="#E8ECF4" stroke-width="0.5"/>
</svg>
