<svg width="651" height="463" viewBox="0 0 651 463" fill="none" xmlns="http://www.w3.org/2000/svg">
<g clip-path="url(#clip0_317_2562)">
<path d="M572.992 417.964C570.173 417.966 567.375 417.48 564.722 416.528L564.313 416.381L564.501 415.475C559.749 405.875 561.41 392.722 568.754 381.908C575.431 372.077 585.583 364.929 594.54 358.624C595.677 357.824 597.027 357.382 598.416 357.356C599.806 357.329 601.172 357.719 602.338 358.474C603.504 359.23 604.418 360.318 604.962 361.597C605.505 362.876 605.653 364.289 605.388 365.653L602.185 382.087C599.873 393.942 597.123 405.163 588.968 412.16C584.488 415.908 578.833 417.962 572.992 417.964Z" fill="#E6E6E6"/>
<path d="M593.969 446.361C590.866 446.343 587.818 445.55 585.1 444.054C582.382 442.558 580.081 440.407 578.405 437.796L578.173 437.434L578.727 436.946C580.159 429.128 586.899 422.162 595.949 419.166C604.175 416.443 613.255 416.888 621.261 417.28C622.319 417.331 623.338 417.696 624.188 418.327C625.039 418.958 625.683 419.828 626.039 420.825C626.395 421.823 626.447 422.904 626.188 423.931C625.928 424.958 625.37 425.885 624.584 426.594L615.576 434.725C609.03 440.632 602.502 445.966 594.627 446.348C594.407 446.357 594.188 446.361 593.969 446.361Z" fill="#E6E6E6"/>
<path d="M566.014 455.053C564.683 445.148 563.315 435.115 564.248 425.104C565.077 416.212 567.731 407.528 573.133 400.408C575.987 396.647 579.476 393.415 583.443 390.856C584.474 390.191 585.423 391.861 584.397 392.524C577.52 396.988 572.23 403.512 569.285 411.164C565.995 419.719 565.466 429.044 566.033 438.132C566.376 443.627 567.103 449.087 567.835 454.54C567.894 454.784 567.859 455.042 567.737 455.262C567.615 455.482 567.414 455.648 567.175 455.727C567.055 455.76 566.929 455.768 566.805 455.751C566.682 455.735 566.562 455.694 566.454 455.631C566.346 455.569 566.252 455.485 566.176 455.386C566.101 455.287 566.045 455.174 566.014 455.053Z" fill="#F2F2F2"/>
<path d="M562.254 460.747C568.657 449.166 576.083 436.294 589.353 432.18C593.038 431.041 596.91 430.632 600.751 430.977C601.961 431.084 601.659 432.991 600.451 432.884C593.999 432.342 587.561 434.084 582.261 437.804C577.133 441.373 573.139 446.334 569.759 451.596C567.689 454.819 565.835 458.178 563.98 461.533C563.387 462.606 561.655 461.832 562.254 460.747Z" fill="#F2F2F2"/>
<path d="M559.373 460.578L565.838 460.725L526.858 252.488L520.393 253.706L530.572 307.725H497.778L507.957 253.706L501.493 252.488L462.838 460.725L468.977 460.578L489.299 352.725H539.051L559.373 460.578ZM490.807 344.725L496.271 315.725H532.079L537.543 344.725H490.807Z" fill="#CACACA"/>
<path d="M277.087 213.644V145.259C277.087 143.228 280.228 141.577 284.087 141.577C287.947 141.577 291.087 143.228 291.087 145.259V213.644C291.087 215.675 287.947 217.327 284.087 217.327C280.228 217.327 277.087 215.675 277.087 213.644Z" fill="#F0F0F0"/>
<path d="M260.337 213.644V145.259C260.337 143.228 263.478 141.577 267.337 141.577C271.197 141.577 274.337 143.228 274.337 145.259V213.644C274.337 215.675 271.197 217.327 267.337 217.327C263.478 217.327 260.337 215.675 260.337 213.644Z" fill="#F0F0F0"/>
<path d="M243.587 213.644V145.259C243.587 143.228 246.728 141.577 250.587 141.577C254.447 141.577 257.587 143.228 257.587 145.259V213.644C257.587 215.675 254.447 217.327 250.587 217.327C246.728 217.327 243.587 215.675 243.587 213.644Z" fill="#F0F0F0"/>
<path d="M384.502 163.354C384.471 163.146 384.396 162.947 384.283 162.77C384.17 162.593 384.021 162.441 383.846 162.325L331.073 127.487C331.868 127.155 332.533 126.572 332.967 125.827C333.494 124.908 333.636 123.817 333.362 122.793C333.088 121.77 332.419 120.896 331.503 120.363L327.173 117.863C326.253 117.336 325.163 117.194 324.139 117.468C323.115 117.743 322.242 118.411 321.709 119.327C321.421 119.831 321.248 120.392 321.202 120.97L283.108 95.8219C281.829 92.7235 279.889 89.9413 277.425 87.6692C274.96 85.397 272.03 83.6896 268.838 82.6657V71.5774H254.838V82.6658C250.193 84.151 246.14 87.0738 243.264 91.0122C240.389 94.9505 238.838 99.7008 238.838 104.577V107.577H252.838C252.838 109.964 253.786 112.254 255.474 113.941C257.162 115.629 259.451 116.577 261.838 116.577C264.225 116.577 266.514 115.629 268.202 113.941C269.89 112.254 270.838 109.964 270.838 107.577H284.838V104.577C284.837 103.139 284.701 101.704 284.433 100.292L380.802 163.911L340.771 212.582C340.46 212.58 340.151 212.577 339.838 212.577C336.644 212.577 333.549 212.653 330.601 212.783C330.778 212.289 330.856 211.764 330.829 211.239C330.771 210.181 330.296 209.189 329.509 208.479C328.721 207.77 327.685 207.401 326.626 207.453L321.633 207.713C320.575 207.771 319.583 208.246 318.873 209.033C318.164 209.821 317.795 210.857 317.847 211.916C317.884 212.541 318.069 213.149 318.389 213.688C309.56 214.626 303.838 215.919 303.838 216.577C303.838 217.656 319.201 216.629 338.43 216.58C338.518 216.83 338.671 217.052 338.874 217.223C339.076 217.395 339.32 217.509 339.582 217.555C339.843 217.601 340.111 217.576 340.36 217.484C340.608 217.392 340.828 217.235 340.996 217.03L341.367 216.58C360.539 216.633 375.838 217.653 375.838 216.577C375.838 215.563 362.236 213.039 344.612 212.634L384.178 164.53C384.311 164.368 384.409 164.179 384.465 163.976C384.521 163.774 384.533 163.562 384.502 163.354Z" fill="#CCCCCC"/>
<path d="M385.945 461.078H262.729C260.239 461.075 257.852 460.084 256.092 458.323C254.331 456.562 253.341 454.175 253.338 451.685V249.469C253.335 247.244 252.45 245.111 250.877 243.538C249.304 241.965 247.171 241.08 244.946 241.078H-43.2701C-45.4949 241.08 -47.628 241.965 -49.2013 243.538C-50.7745 245.111 -51.6595 247.244 -51.6621 249.469V451.685C-51.665 454.175 -52.6554 456.562 -54.4161 458.323C-56.1768 460.084 -58.5641 461.075 -61.0542 461.078H-65.27C-67.7601 461.075 -70.1474 460.084 -71.9081 458.323C-73.6689 456.562 -74.6593 454.175 -74.6621 451.685V238.578C-74.6554 232.612 -72.2828 226.893 -68.0646 222.675C-63.8465 218.457 -58.1274 216.084 -52.1621 216.078H372.838C378.803 216.084 384.522 218.457 388.74 222.675C392.958 226.893 395.331 232.612 395.338 238.578V451.685C395.335 454.175 394.344 456.563 392.584 458.323C390.823 460.084 388.435 461.075 385.945 461.078Z" fill="#E4E4E4"/>
<path d="M394.838 268.577H253.838V274.577H394.838V268.577Z" fill="white"/>
<path d="M394.838 349.577H253.838V355.577H394.838V349.577Z" fill="white"/>
<path d="M137.122 215.09L133.069 213.384L130.289 193.069H93.2689L90.2556 213.301L86.6301 215.114C86.4566 215.2 86.3176 215.343 86.2354 215.519C86.1532 215.694 86.1328 215.893 86.1773 216.081C86.2219 216.27 86.3289 216.438 86.4809 216.559C86.633 216.679 86.8212 216.745 87.0151 216.745H136.788C136.986 216.745 137.179 216.676 137.333 216.55C137.487 216.424 137.592 216.249 137.631 216.054C137.671 215.859 137.641 215.657 137.549 215.481C137.456 215.305 137.305 215.167 137.122 215.09Z" fill="#E6E6E6"/>
<path d="M202.909 195.772H21.0552C20.1011 195.769 19.1868 195.389 18.5128 194.713C17.8389 194.038 17.4605 193.123 17.4604 192.169V166.525H206.504V192.169C206.504 193.123 206.125 194.038 205.451 194.713C204.777 195.389 203.863 195.769 202.909 195.772Z" fill="#CCCCCC"/>
<path d="M206.694 178.645H17.2944V68.9206C17.2958 67.7691 17.7538 66.6651 18.568 65.8509C19.3823 65.0367 20.4862 64.5787 21.6377 64.5774H202.35C203.502 64.5787 204.606 65.0367 205.42 65.8509C206.234 66.6651 206.692 67.7691 206.694 68.9206V178.645Z" fill="#3F3D56"/>
<path d="M195.382 170.681H28.6067C27.719 170.68 26.8678 170.327 26.2401 169.699C25.6124 169.072 25.2593 168.22 25.2583 167.333V75.8895C25.2593 75.0017 25.6124 74.1506 26.2401 73.5229C26.8678 72.8951 27.7189 72.542 28.6067 72.541H195.382C196.27 72.542 197.121 72.8951 197.748 73.5229C198.376 74.1506 198.729 75.0017 198.73 75.8895V167.333C198.729 168.22 198.376 169.072 197.748 169.699C197.121 170.327 196.27 170.68 195.382 170.681Z" fill="white"/>
<path d="M382.339 83.0387C383.935 82.8089 385.561 82.9316 387.104 83.3982C388.647 83.8649 390.068 84.6642 391.269 85.7397C392.469 86.8153 393.419 88.141 394.052 89.6234C394.685 91.1059 394.985 92.709 394.931 94.32L431.496 108.394L414.93 120.231L382.747 105.051C380.046 104.781 377.539 103.53 375.7 101.535C373.86 99.5394 372.816 96.9388 372.766 94.2255C372.716 91.5123 373.663 88.8749 375.427 86.8131C377.192 84.7513 379.651 83.4083 382.339 83.0387Z" fill="#9E616A"/>
<path d="M521.177 76.1296L527.363 87.3764C525.868 94.5098 522.005 100.928 516.4 105.587C506.929 113.575 457.409 143.324 457.409 143.324L394.891 111.938L405.828 97.4053L454.91 113.854C473.117 96.6612 495.089 83.9592 519.074 76.7607L521.177 76.1296Z" fill="#E4E4E4"/>
<path d="M509.674 262.234C536.621 262.234 558.465 255.116 558.465 246.336C558.465 237.556 536.621 230.438 509.674 230.438C482.728 230.438 460.884 237.556 460.884 246.336C460.884 255.116 482.728 262.234 509.674 262.234Z" fill="#CACACA"/>
<path d="M400.217 447.105L387.261 443.524L394.909 391.846L414.031 397.133L400.217 447.105Z" fill="#9E616A"/>
<path d="M400.049 460.578L358.274 449.029L358.42 448.501C359.612 444.189 362.468 440.527 366.361 438.32C370.253 436.114 374.862 435.544 379.174 436.735L379.175 436.736L404.69 443.789L400.049 460.578Z" fill="#2F2E41"/>
<path d="M362.653 447.273L350.356 441.843L365.448 391.831L383.596 399.844L362.653 447.273Z" fill="#9E616A"/>
<path d="M360.526 460.578L320.877 443.07L321.098 442.568C322.906 438.475 326.265 435.268 330.437 433.652C334.609 432.036 339.252 432.143 343.345 433.95L343.346 433.95L367.562 444.643L360.526 460.578Z" fill="#2F2E41"/>
<path d="M547.646 207.467C547.646 207.467 554.163 227.66 514.175 253.197L462.674 304.516L409.161 432.522L377.392 418.279L383.623 401.647L387.804 390.486L389.943 384.777L392.236 378.656L426.247 287.869L454.817 237.846L455.646 210.703L462.674 191.569L513.657 173.478L547.646 207.467Z" fill="#2F2E41"/>
<path d="M521.646 208.467C521.646 208.467 528.163 228.66 488.175 254.197L436.674 305.516L383.161 433.522L351.392 419.279L357.623 402.647L361.804 391.486L363.943 385.777L366.236 379.656L400.247 288.869L409.813 272.12C422.433 250.024 437.768 229.594 455.46 211.305L464.838 201.611L465.838 186.611L487.657 174.478L521.646 208.467Z" fill="#2F2E41"/>
<path d="M490.838 109.611L506.838 75.6113L534.759 71.8025C534.759 71.8025 556.562 99.5795 550.838 138.611C548.691 153.248 546.942 167.82 546.838 180.611C546.81 184.015 549.788 185.534 549.838 188.611C549.887 191.634 544.195 196.557 545.838 198.611C548.188 201.442 549.587 204.941 549.838 208.611C547.856 213.327 487.882 187.777 462.674 191.569L490.838 109.611Z" fill="#E4E4E4"/>
<path d="M530.496 54.6854C537.623 42.6961 533.681 27.1992 521.692 20.0722C509.702 12.9452 494.205 16.8869 487.078 28.8763C479.951 40.8657 483.893 56.3625 495.882 63.4895C507.872 70.6165 523.369 66.6748 530.496 54.6854Z" fill="#9E616A"/>
<path d="M524.933 32.713C524.885 33.3775 524.818 34.2576 524.741 35.2533C524.663 37.979 525.431 40.662 526.94 42.9332C528.353 45.3226 526.667 59.754 526.667 59.754C568.035 30.9177 535.348 1.94705 522.562 4.52234C522.829 0.855214 512.401 2.30796 512.401 2.30796C508.427 -3.87986 499.719 4.33396 499.719 4.33396L501.399 1.50702C494.638 3.22674 487.956 24.1224 487.956 24.1224C490.248 33.137 525.2 29.0458 524.933 32.713Z" fill="#2F2E41"/>
<path d="M364.453 122.986C378.668 104.077 389.906 83.104 397.776 60.795C398.232 59.4606 398.2 58.0077 397.685 56.6949C397.17 55.3821 396.206 54.2947 394.964 53.6261L346.319 27.5609C345.532 27.136 344.658 26.8963 343.765 26.8601C342.871 26.8238 341.981 26.9919 341.162 27.3516C340.328 27.714 339.588 28.262 338.997 28.9537C338.407 29.6454 337.982 30.4627 337.755 31.3434C332.093 52.841 321.451 72.7039 306.688 89.3252C306.08 90.0018 305.635 90.808 305.386 91.6827C305.137 92.5574 305.091 93.4773 305.251 94.3725C305.405 95.2535 305.758 96.0877 306.283 96.8116C306.808 97.5355 307.491 98.13 308.281 98.5499L356.927 124.615C358.171 125.279 359.61 125.479 360.988 125.181C362.367 124.882 363.594 124.105 364.453 122.986Z" fill="#CCCCCC"/>
<path d="M361.133 120.492C360.872 120.818 360.504 121.043 360.094 121.128C359.684 121.212 359.258 121.151 358.888 120.955L310.243 94.8895C310.006 94.7663 309.802 94.5902 309.645 94.3748C309.488 94.1594 309.384 93.9106 309.339 93.6479C309.289 93.3706 309.303 93.0854 309.381 92.8145C309.459 92.5436 309.599 92.2945 309.789 92.0867C324.987 74.9758 335.943 54.5276 341.772 32.3965C341.839 32.1231 341.969 31.8689 342.151 31.654C342.333 31.4391 342.563 31.2692 342.821 31.1577C343.065 31.0487 343.33 30.9978 343.597 31.0088C343.864 31.0198 344.124 31.0925 344.358 31.2212L393.003 57.2863C393.371 57.4854 393.659 57.807 393.815 58.1954C393.972 58.5839 393.988 59.0149 393.86 59.4139C386.131 81.3235 375.094 101.921 361.133 120.492Z" fill="white"/>
<path d="M344.115 55.9856L377.667 75.6517C381.005 77.6084 384.028 72.4244 380.695 70.4709L347.143 50.8047C343.805 48.848 340.782 54.032 344.115 55.9856Z" fill="#394DFD"/>
<path d="M338.115 66.9856L371.667 86.6517C375.005 88.6084 378.028 83.4244 374.695 81.4709L341.143 61.8047C337.805 59.848 334.782 65.032 338.115 66.9856Z" fill="#394DFD"/>
<path d="M331.115 78.9856L364.667 98.6517C368.005 100.608 371.028 95.4244 367.695 93.4709L334.143 73.8047C330.805 71.848 327.782 77.032 331.115 78.9856Z" fill="#394DFD"/>
<path d="M324.115 88.9856L357.667 108.652C361.005 110.608 364.028 105.424 360.695 103.471L327.143 83.8047C323.805 81.848 320.782 87.032 324.115 88.9856Z" fill="#394DFD"/>
<path d="M477.069 204.664L489.666 232.989C489.969 233.667 490.099 234.411 490.044 235.152C489.988 235.892 489.749 236.608 489.347 237.233C488.874 237.98 488.19 238.57 487.382 238.93C486.574 239.289 485.678 239.401 484.807 239.252C484.51 239.207 484.219 239.129 483.939 239.02C482.825 238.59 481.927 237.737 481.442 236.646L468.846 208.321C468.606 207.781 468.474 207.199 468.459 206.608C468.444 206.017 468.545 205.43 468.757 204.878C469.185 203.764 470.038 202.866 471.129 202.381C472.22 201.896 473.458 201.864 474.572 202.292C475.686 202.72 476.584 203.573 477.069 204.664Z" fill="#394DFD"/>
<path d="M488.65 230.705L491.173 236.422L492.464 244.527C492.549 245.06 492.456 245.607 492.198 246.082C491.94 246.557 491.533 246.934 491.039 247.153C490.546 247.373 489.993 247.423 489.468 247.296C488.943 247.169 488.474 246.872 488.135 246.452L482.913 239.954L480.426 234.362L488.65 230.705Z" fill="#3F3D56"/>
<path d="M466.047 196.783L467.852 208.123C467.911 208.495 468.054 208.847 468.271 209.154C468.489 209.461 468.773 209.714 469.104 209.894C469.434 210.073 469.801 210.174 470.177 210.189C470.553 210.203 470.927 210.132 471.27 209.979L473.06 209.183L476.514 216.95C476.622 217.192 476.821 217.381 477.069 217.476C477.316 217.571 477.591 217.563 477.833 217.456C478.075 217.348 478.264 217.149 478.36 216.901C478.455 216.654 478.448 216.379 478.341 216.137L474.887 208.37L476.677 207.575C477.27 207.31 477.734 206.822 477.968 206.216C478.202 205.61 478.187 204.937 477.925 204.342C477.837 204.145 477.724 203.961 477.589 203.793L470.377 194.858C470.038 194.437 469.569 194.141 469.044 194.014C468.518 193.887 467.966 193.938 467.472 194.157C466.978 194.377 466.571 194.753 466.313 195.228C466.055 195.703 465.962 196.25 466.047 196.783Z" fill="#3F3D56"/>
<path d="M471.272 217.252C471.556 215.665 472.184 214.16 473.113 212.842C474.041 211.525 475.247 210.427 476.646 209.626C478.045 208.825 479.602 208.34 481.208 208.206C482.814 208.072 484.43 208.292 485.943 208.85L510.809 178.572L516.83 198.021L492.294 223.792C491.188 226.27 489.211 228.257 486.739 229.375C484.266 230.493 481.469 230.665 478.878 229.859C476.287 229.053 474.081 227.324 472.679 225.001C471.278 222.677 470.777 219.92 471.272 217.252Z" fill="#9E616A"/>
<path d="M502.577 215.284L491.625 199.465L522.724 158L506.703 123.67L507.87 82.8344L521.109 80.3889L521.273 80.4713C527.709 84.1762 532.684 89.9712 535.372 96.8941C538.675 105.15 546.047 136.145 550.148 153.884C550.954 157.322 550.866 160.909 549.892 164.303C548.919 167.697 547.093 170.785 544.588 173.273L502.577 215.284Z" fill="#E4E4E4"/>
<path d="M194.214 138.846C194.123 139.614 194.092 140.388 194.123 141.162L138.05 181.955L122.646 175.138L109.318 197.041L135.416 211.761C137.525 212.95 139.962 213.423 142.362 213.109C144.762 212.795 146.996 211.711 148.727 210.02L205.163 154.896C208.051 155.63 211.095 155.467 213.889 154.429C216.683 153.391 219.094 151.527 220.803 149.085C222.512 146.643 223.436 143.739 223.454 140.758C223.472 137.778 222.581 134.862 220.902 132.4C219.222 129.938 216.833 128.045 214.052 126.974C211.27 125.903 208.229 125.704 205.331 126.404C202.434 127.104 199.819 128.669 197.833 130.891C195.847 133.114 194.584 135.888 194.214 138.846Z" fill="#FFB6B6"/>
<path d="M136.237 183.447L119.885 210.695C119.42 211.47 118.793 212.136 118.047 212.647C117.301 213.158 116.454 213.503 115.563 213.657C114.672 213.811 113.759 213.771 112.884 213.541C112.01 213.31 111.196 212.893 110.497 212.32L86.014 192.212C82.0619 189.809 79.2239 185.936 78.1221 181.444C77.0204 176.952 77.7448 172.206 80.1365 168.246C82.5283 164.287 86.3923 161.438 90.8815 160.323C95.3706 159.208 100.119 159.919 104.085 162.299L133.254 174.398C134.089 174.745 134.84 175.267 135.455 175.93C136.07 176.593 136.535 177.381 136.818 178.239C137.101 179.098 137.195 180.008 137.095 180.906C136.995 181.805 136.702 182.671 136.237 183.447Z" fill="#394DFD"/>
<path d="M66.1741 420.283H98.2266V367.167H66.1741V420.283Z" fill="#CACACA"/>
<path d="M96.6202 395.273L92.5063 401.336L169.432 453.535L173.546 447.473L96.6202 395.273Z" fill="#CACACA"/>
<path d="M67.7804 395.273L-9.14551 447.473L-5.03161 453.535L71.8943 401.336L67.7804 395.273Z" fill="#CACACA"/>
<path d="M171.489 460.577C177.053 460.577 181.563 456.067 181.563 450.504C181.563 444.94 177.053 440.43 171.489 440.43C165.926 440.43 161.416 444.94 161.416 450.504C161.416 456.067 165.926 460.577 171.489 460.577Z" fill="#CACACA"/>
<path d="M81.7426 460.577C87.3061 460.577 91.8162 456.067 91.8162 450.504C91.8162 444.94 87.3061 440.43 81.7426 440.43C76.1791 440.43 71.6689 444.94 71.6689 450.504C71.6689 456.067 76.1791 460.577 81.7426 460.577Z" fill="#CACACA"/>
<path d="M-7.08849 460.577C-1.52497 460.577 2.98515 456.067 2.98515 450.504C2.98515 444.94 -1.52497 440.43 -7.08849 440.43C-12.652 440.43 -17.1621 444.94 -17.1621 450.504C-17.1621 456.067 -12.652 460.577 -7.08849 460.577Z" fill="#CACACA"/>
<path d="M85.4054 398.304H78.0791V450.504H85.4054V398.304Z" fill="#CACACA"/>
<path d="M75.3321 390.978H89.0688L89.0688 320.463H75.3321L75.3321 390.978Z" fill="#CACACA"/>
<path d="M42.8218 331.452V314.968C42.8252 311.933 44.0323 309.023 46.1784 306.877C48.3244 304.731 51.2341 303.524 54.2691 303.521H115.627C118.662 303.524 121.571 304.731 123.717 306.877C125.863 309.023 127.07 311.933 127.074 314.968V331.452C127.07 334.487 125.863 337.397 123.717 339.543C121.571 341.689 118.662 342.896 115.627 342.899H54.2691C51.2341 342.896 48.3244 341.689 46.1784 339.543C44.0323 337.397 42.8252 334.487 42.8218 331.452Z" fill="#3F3D56"/>
<path d="M153.641 444.129L170.609 444.128L178.683 400.117L153.639 400.118L153.641 444.129Z" fill="#FFB8B8"/>
<path d="M149.314 460.577L204.029 460.575V459.883C204.029 457.087 203.478 454.317 202.408 451.734C201.337 449.15 199.769 446.802 197.791 444.825C195.814 442.847 193.466 441.278 190.882 440.208C188.299 439.138 185.529 438.587 182.733 438.587H182.73L149.312 438.588L149.314 460.577Z" fill="#2F2E41"/>
<path d="M179.021 416.837L212.85 340.976C215.675 334.583 215.987 327.36 213.725 320.746C211.463 314.132 206.793 308.613 200.644 305.288L127.267 265.941L93.7839 263.093L62.8976 260.285L62.6749 260.662C62.3901 261.143 55.7492 272.614 60.2382 285.191C63.6432 294.731 72.5 302.183 86.5625 307.34C119.386 319.375 157.304 329.662 172.082 333.525C172.736 333.692 173.346 333.995 173.873 334.415C174.401 334.835 174.834 335.361 175.143 335.96C175.453 336.552 175.637 337.202 175.684 337.869C175.731 338.536 175.639 339.205 175.415 339.834L143.986 410.445C143.658 411.34 143.54 412.299 143.641 413.248C143.742 414.196 144.059 415.109 144.568 415.915C145.078 416.721 145.766 417.4 146.579 417.899C147.392 418.397 148.309 418.702 149.259 418.79L172.742 420.5C172.942 420.519 173.14 420.528 173.338 420.528C174.54 420.528 175.717 420.179 176.726 419.524C177.735 418.869 178.532 417.936 179.021 416.837Z" fill="#2F2E41"/>
<path d="M142.568 444.129L159.536 444.128L167.61 400.117L142.566 400.118L142.568 444.129Z" fill="#FFB8B8"/>
<path d="M138.24 460.577L192.955 460.575V459.883C192.955 457.087 192.405 454.317 191.334 451.734C190.264 449.15 188.696 446.802 186.718 444.825C184.741 442.847 182.393 441.278 179.809 440.208C177.225 439.138 174.456 438.587 171.659 438.587H171.657L138.239 438.588L138.24 460.577Z" fill="#2F2E41"/>
<path d="M166.564 420.989L200.393 345.129C203.218 338.735 203.53 331.512 201.268 324.898C199.006 318.284 194.336 312.765 188.187 309.44L114.81 270.093L81.3267 267.245L57.135 265.146L57.1383 264.814C56.8534 265.296 50.2126 276.766 54.7016 289.343C58.1066 298.884 60.0427 306.335 74.1053 311.492C106.929 323.527 144.847 333.814 159.625 337.677C160.278 337.844 160.889 338.147 161.416 338.567C161.944 338.987 162.376 339.514 162.686 340.113C162.996 340.705 163.18 341.354 163.227 342.021C163.274 342.688 163.182 343.357 162.957 343.987L131.529 414.597C131.201 415.493 131.082 416.452 131.183 417.4C131.284 418.348 131.602 419.261 132.111 420.067C132.621 420.874 133.308 421.552 134.122 422.051C134.935 422.549 135.852 422.854 136.801 422.942L160.285 424.652C160.484 424.671 160.683 424.681 160.881 424.681C162.083 424.68 163.26 424.331 164.269 423.676C165.277 423.021 166.075 422.088 166.564 420.989Z" fill="#2F2E41"/>
<path d="M145.343 94.2388C149.687 75.973 138.401 57.6443 120.136 53.3005C101.87 48.9566 83.5412 60.2425 79.1973 78.5083C74.8534 96.774 86.1394 115.103 104.405 119.447C122.671 123.79 141 112.505 145.343 94.2388Z" fill="#FFB8B8"/>
<path d="M229.453 216.986C243.668 198.077 254.906 177.104 262.776 154.795C263.232 153.461 263.2 152.008 262.685 150.695C262.17 149.382 261.206 148.295 259.964 147.626L211.319 121.561C210.532 121.136 209.658 120.896 208.765 120.86C207.871 120.824 206.981 120.992 206.162 121.352C205.328 121.714 204.588 122.262 203.997 122.954C203.407 123.645 202.982 124.463 202.755 125.343C197.093 146.841 186.451 166.704 171.688 183.325C171.08 184.002 170.635 184.808 170.386 185.683C170.137 186.557 170.091 187.477 170.251 188.373C170.405 189.253 170.758 190.088 171.283 190.812C171.808 191.536 172.491 192.13 173.281 192.55L221.927 218.615C223.171 219.279 224.61 219.479 225.988 219.181C227.367 218.882 228.594 218.105 229.453 216.986Z" fill="#CCCCCC"/>
<path d="M226.133 214.492C225.872 214.818 225.504 215.043 225.094 215.128C224.684 215.212 224.258 215.151 223.888 214.955L175.243 188.889C175.006 188.766 174.802 188.59 174.645 188.375C174.488 188.159 174.384 187.911 174.339 187.648C174.289 187.371 174.303 187.085 174.381 186.814C174.459 186.544 174.599 186.295 174.789 186.087C189.987 168.976 200.943 148.528 206.772 126.396C206.839 126.123 206.969 125.869 207.151 125.654C207.333 125.439 207.563 125.269 207.821 125.158C208.065 125.049 208.33 124.998 208.597 125.009C208.864 125.02 209.124 125.093 209.358 125.221L258.003 151.286C258.371 151.485 258.659 151.807 258.815 152.195C258.972 152.584 258.988 153.015 258.86 153.414C251.131 175.324 240.094 195.921 226.133 214.492Z" fill="white"/>
<path d="M209.115 149.986L242.667 169.652C246.005 171.608 249.028 166.424 245.695 164.471L212.143 144.805C208.805 142.848 205.782 148.032 209.115 149.986Z" fill="#CCCCCC"/>
<path d="M203.115 160.986L236.667 180.652C240.005 182.608 243.028 177.424 239.695 175.471L206.143 155.805C202.805 153.848 199.782 159.032 203.115 160.986Z" fill="#CCCCCC"/>
<path d="M198.401 171.943L228.915 190.057C231.951 191.86 235.198 188.134 232.166 186.334L201.652 168.219C198.616 166.417 195.369 170.143 198.401 171.943Z" fill="#CCCCCC"/>
<path d="M189.115 182.986L222.667 202.652C226.005 204.608 229.028 199.424 225.695 197.471L192.143 177.805C188.805 175.848 185.782 181.032 189.115 182.986Z" fill="#CCCCCC"/>
<path d="M131.872 268.694L64.5982 268.292L64.5798 267.813C63.2971 234.059 67.4224 203.483 77.1914 174.339C77.3296 173.248 77.4788 172.082 77.6253 170.937C79.294 157.898 80.6189 147.546 93.0181 143.69C91.985 142.317 91.3761 140.671 91.2662 138.956C91.188 137.816 91.3374 136.672 91.7056 135.59C92.0739 134.509 92.6536 133.511 93.4111 132.656C94.1359 131.83 95.0178 131.157 96.0054 130.675C96.993 130.193 98.0667 129.912 99.1638 129.849L123.109 129.034C124.367 129.026 125.592 129.441 126.586 130.213C128.409 131.567 129.69 133.526 130.2 135.739C130.71 137.952 130.416 140.274 129.369 142.29C129.087 142.851 128.979 143.107 128.938 143.219C129.79 147.679 132.315 152.976 134.988 158.583C138.815 166.61 143.153 175.708 144.268 185.441C144.87 190.697 144.62 196.015 143.527 201.19C143.028 203.979 142.913 206.823 143.185 209.643C143.404 213.825 143.61 217.773 141.247 221.592C140.644 222.627 139.955 223.73 139.146 224.953L135.821 232.901L131.872 268.694Z" fill="#394DFD"/>
<path d="M30.9165 315.931V178.469C30.9215 173.99 32.7032 169.695 35.8705 166.528C39.0379 163.361 43.3323 161.579 47.8116 161.574H52.4844C56.9637 161.579 61.2581 163.361 64.4254 166.528C67.5928 169.695 69.3744 173.99 69.3795 178.469V315.931C69.3744 320.41 67.5928 324.704 64.4254 327.872C61.2581 331.039 56.9637 332.821 52.4844 332.826H47.8116C43.3323 332.821 39.0379 331.039 35.8705 327.872C32.7032 324.704 30.9215 320.41 30.9165 315.931Z" fill="#3F3D56"/>
<path d="M211.321 192.189C210.838 192.793 210.403 193.435 210.021 194.108L140.863 199.157L131.378 185.236L108.497 196.804L122.893 223.082C124.056 225.205 125.877 226.893 128.081 227.893C130.285 228.893 132.754 229.152 135.118 228.629L212.147 211.6C214.214 213.749 216.885 215.217 219.805 215.81C222.726 216.403 225.759 216.093 228.499 214.921C231.239 213.748 233.558 211.77 235.146 209.247C236.734 206.725 237.517 203.78 237.39 200.802C237.263 197.824 236.233 194.955 234.436 192.577C232.639 190.2 230.16 188.425 227.33 187.49C224.5 186.555 221.453 186.504 218.593 187.343C215.733 188.183 213.196 189.873 211.321 192.189Z" fill="#FFB6B6"/>
<path d="M138.536 199.467L110.265 213.978C109.46 214.391 108.577 214.626 107.673 214.666C106.77 214.706 105.869 214.552 105.031 214.212C104.192 213.873 103.437 213.357 102.817 212.7C102.196 212.042 101.724 211.259 101.434 210.403L91.2529 180.401C89.1654 176.283 88.7939 171.505 90.2196 167.113C91.6453 162.721 94.7523 159.073 98.8608 156.966C86.3287 163.398 112.429 145.126 122.391 164.533L140.779 190.207C141.305 190.942 141.667 191.782 141.839 192.67C142.012 193.557 141.991 194.472 141.778 195.35C141.565 196.229 141.165 197.052 140.606 197.762C140.046 198.472 139.34 199.054 138.536 199.467Z" fill="#394DFD"/>
<path d="M96.9135 119.438C94.8673 119.438 92.6095 118.452 90.0641 116.454C82.5738 110.573 77.2199 102.396 74.8237 93.1792C72.4275 83.9621 73.1213 74.2135 76.7987 65.4287C78.6495 61.0078 82.111 54.999 88.0912 51.4775C92.39 48.9472 97.4398 48.0332 101.836 47.375C105.641 46.8047 109.495 46.3505 113.289 46.0273C117.822 45.6396 123.059 45.3779 127.835 47.1923C131.334 48.5224 134.313 50.871 137.193 53.1425C138.197 53.9335 139.235 54.7529 140.275 55.5107C142.795 57.4761 145.7 58.8874 148.803 59.6523C149.457 59.788 150.075 60.0627 150.615 60.4577C151.154 60.8528 151.602 61.3591 151.929 61.9423C152.263 62.5351 152.465 63.1926 152.523 63.8704C152.58 64.5481 152.492 65.2304 152.263 65.871C151.814 67.1308 151.408 68.2665 152.229 69.497C152.533 69.9305 152.938 70.2828 153.41 70.5232C153.882 70.7636 154.405 70.8847 154.935 70.8759C155.214 70.8713 155.49 70.9367 155.738 71.0659C155.986 71.1952 156.197 71.3843 156.353 71.6161C156.511 71.8459 156.611 72.1109 156.644 72.388C156.676 72.6651 156.64 72.9459 156.539 73.206L156.407 73.5449C156.759 73.5777 157.098 73.6955 157.394 73.8882C157.69 74.081 157.935 74.3428 158.108 74.6513C158.365 75.0905 158.464 75.6041 158.389 76.1073C158.314 76.6105 158.07 77.0732 157.697 77.4188C154.663 80.3065 150.881 82.2861 146.779 83.1327C143.972 83.6833 141.084 83.6767 138.28 83.1132L137.829 83.0253L137.884 82.5253C126.54 78.4794 116.3 85.3456 110.463 93.1952L109.62 92.663C109.764 92.3705 109.849 92.0517 109.867 91.7257C109.885 91.3998 109.838 91.0735 109.727 90.7665C109.609 90.3981 109.42 90.0565 109.17 89.7612C108.921 89.466 108.615 89.2228 108.271 89.0458C107.576 88.759 106.811 88.6845 106.074 88.8317C105.336 88.9789 104.659 89.3412 104.127 89.873C103.585 90.4407 103.168 91.115 102.901 91.8529C102.634 92.5908 102.524 93.3762 102.578 94.1591C102.731 95.8183 103.154 97.4415 103.829 98.9648C104.103 99.6933 104.387 100.447 104.618 101.207C105.91 105.523 105.566 110.164 103.651 114.242C102.767 116.102 101.169 118.475 98.5748 119.21C98.0343 119.363 97.4752 119.439 96.9135 119.438Z" fill="#2F2E41"/>
<path d="M649.485 462.577H-157.809C-158.125 462.577 -158.426 462.451 -158.649 462.227C-158.872 462.004 -158.997 461.702 -158.997 461.387C-158.997 461.072 -158.872 460.769 -158.649 460.546C-158.426 460.323 -158.125 460.197 -157.809 460.196H649.485C649.8 460.196 650.103 460.322 650.327 460.545C650.55 460.768 650.675 461.071 650.675 461.387C650.675 461.703 650.55 462.005 650.327 462.229C650.103 462.452 649.8 462.577 649.485 462.577Z" fill="#CACACA"/>
</g>
<defs>
<clipPath id="clip0_317_2562">
<rect width="651" height="463" fill="white"/>
</clipPath>
</defs>
</svg>
