<svg width="682" height="416" viewBox="0 0 682 416" fill="none" xmlns="http://www.w3.org/2000/svg">
<g clip-path="url(#clip0_317_1953)">
<path d="M525.159 288.033H383.269V289.747H525.159V288.033Z" fill="#3F3D56"/>
<path d="M525.159 300.03H383.269V301.744H525.159V300.03Z" fill="#3F3D56"/>
<path d="M525.159 312.026H383.269V313.74H525.159V312.026Z" fill="#3F3D56"/>
<path d="M413.415 268.573H380.17V239.269H413.415V268.573ZM381.5 267.144H412.085V240.699H381.5V267.144Z" fill="#3F3D56"/>
<path d="M396.528 261.032C400.028 261.032 402.865 257.982 402.865 254.22C402.865 250.458 400.028 247.408 396.528 247.408C393.028 247.408 390.191 250.458 390.191 254.22C390.191 257.982 393.028 261.032 396.528 261.032Z" fill="#394DFD"/>
<path d="M525.159 48.7642H383.269V50.4779H525.159V48.7642Z" fill="#3F3D56"/>
<path d="M525.159 60.7605H383.269V62.4743H525.159V60.7605Z" fill="#3F3D56"/>
<path d="M525.159 72.7568H383.269V74.4706H525.159V72.7568Z" fill="#3F3D56"/>
<path d="M413.415 29.3038H380.17V0H413.415V29.3038ZM381.5 27.8743H412.085V1.42945H381.5V27.8743Z" fill="#3F3D56"/>
<path d="M396.528 21.7625C400.028 21.7625 402.865 18.7127 402.865 14.9506C402.865 11.1885 400.028 8.13867 396.528 8.13867C393.028 8.13867 390.191 11.1885 390.191 14.9506C390.191 18.7127 393.028 21.7625 396.528 21.7625Z" fill="#394DFD"/>
<path d="M682 185.854H540.109V187.568H682V185.854Z" fill="#3F3D56"/>
<path d="M682 197.851H540.109V199.565H682V197.851Z" fill="#3F3D56"/>
<path d="M682 209.847H540.109V211.561H682V209.847Z" fill="#3F3D56"/>
<path d="M570.256 166.394H537.011V137.09H570.256V166.394ZM538.341 164.964H568.926V138.52H538.341V164.964Z" fill="#3F3D56"/>
<path d="M553.369 158.853C556.869 158.853 559.706 155.803 559.706 152.041C559.706 148.279 556.869 145.229 553.369 145.229C549.869 145.229 547.032 148.279 547.032 152.041C547.032 155.803 549.869 158.853 553.369 158.853Z" fill="#394DFD"/>
<path d="M166.074 231.435C165.515 231.479 164.97 231.642 164.47 231.914C163.97 232.186 163.526 232.563 163.163 233.021L158.193 239.24L156.863 240.902C156.127 241.824 155.761 243.021 155.846 244.231C155.93 245.442 156.457 246.567 157.312 247.36L179.354 267.726L218.447 303.833C219.263 304.586 220.314 304.98 221.389 304.935C222.463 304.89 223.483 304.411 224.243 303.593C224.318 303.514 224.384 303.435 224.454 303.351L228.259 298.593L230.758 295.464C230.959 295.214 231.135 294.942 231.281 294.651C231.665 293.88 231.836 293.008 231.776 292.136C231.735 291.536 231.584 290.95 231.33 290.413C231.077 289.876 230.727 289.398 230.3 289.008L225.641 284.701L191.166 252.856L169.169 232.529C168.313 231.737 167.2 231.344 166.074 231.435Z" fill="#394DFD"/>
<path d="M154.551 212.488C173.919 212.488 189.62 195.61 189.62 174.791C189.62 153.971 173.919 137.093 154.551 137.093C135.183 137.093 119.482 153.971 119.482 174.791C119.482 195.61 135.183 212.488 154.551 212.488Z" fill="#394DFD"/>
<path d="M145.57 319.542H135.898C134.769 319.543 133.686 320.026 132.888 320.884C132.089 321.743 131.64 322.907 131.639 324.12V410.765C131.64 411.979 132.089 413.143 132.888 414.001C133.686 414.86 134.769 415.342 135.898 415.344H145.57C146.699 415.342 147.782 414.86 148.58 414.001C149.379 413.143 149.828 411.979 149.829 410.765V324.12C149.828 322.907 149.379 321.743 148.58 320.884C147.782 320.026 146.699 319.543 145.57 319.542Z" fill="#2F2E41"/>
<path d="M166.007 319.542H156.336C155.207 319.543 154.124 320.026 153.325 320.884C152.527 321.743 152.078 322.907 152.077 324.12V410.765C152.078 411.979 152.527 413.143 153.325 414.001C154.124 414.86 155.207 415.342 156.336 415.344H166.007C166.567 415.344 167.121 415.225 167.637 414.995C168.154 414.765 168.624 414.428 169.019 414.003C169.415 413.578 169.728 413.073 169.942 412.517C170.156 411.962 170.267 411.366 170.267 410.765V324.12C170.267 323.519 170.156 322.924 169.942 322.368C169.728 321.813 169.415 321.308 169.019 320.883C168.624 320.458 168.154 320.121 167.637 319.89C167.121 319.66 166.567 319.542 166.007 319.542Z" fill="#2F2E41"/>
<path d="M165.56 335.977L133.254 335.068C131.844 335.029 130.454 334.69 129.166 334.072C127.878 333.454 126.716 332.568 125.747 331.466C124.778 330.364 124.021 329.066 123.52 327.649C123.019 326.231 122.784 324.721 122.827 323.205C123.467 301.05 124.992 253.107 125.007 252.641C125.007 246.586 126.769 240.684 130.046 235.759C133.323 230.835 137.951 227.136 143.281 225.181C148.612 223.226 154.378 223.112 159.771 224.855C165.165 226.599 169.916 230.113 173.359 234.904C177.028 239.954 179.017 246.18 179.008 252.587L189.948 304.14C190.758 307.954 190.758 311.915 189.949 315.729C189.14 319.543 187.542 323.112 185.274 326.172C183.006 329.231 180.127 331.703 176.849 333.402C173.571 335.102 169.979 335.986 166.34 335.99C166.081 335.99 165.82 335.986 165.56 335.977Z" fill="#2F2E41"/>
<path d="M186.988 183.47L186.643 182.11C188.997 181.421 191.049 180.716 192.34 179.073C192.702 178.588 192.962 178.024 193.102 177.421C193.243 176.818 193.261 176.189 193.156 175.578C193.1 175.202 192.965 174.845 192.76 174.535C192.555 174.224 192.286 173.969 191.974 173.788C190.719 173.114 189.111 173.858 188.026 174.78L187.089 175.574L185.523 159.173L186.827 159.03L188.159 172.981C188.799 172.516 189.537 172.232 190.306 172.153C191.075 172.074 191.85 172.203 192.56 172.528C193.05 172.802 193.475 173.194 193.801 173.674C194.127 174.154 194.346 174.708 194.439 175.294C194.585 176.114 194.563 176.959 194.373 177.769C194.183 178.579 193.831 179.334 193.341 179.983C191.682 182.093 189.08 182.857 186.988 183.47Z" fill="#2F2E41"/>
<path d="M178.539 162.427L171.68 164.218L171.99 165.587L178.848 163.796L178.539 162.427Z" fill="#2F2E41"/>
<path d="M142.123 236.278C141.745 235.834 141.288 235.475 140.78 235.223C140.271 234.97 139.721 234.828 139.161 234.806L131.541 234.468L129.503 234.377C128.374 234.327 127.274 234.76 126.442 235.582C125.611 236.403 125.116 237.545 125.066 238.758L123.861 269.976L121.731 325.332C121.688 326.487 122.052 327.617 122.75 328.496C123.449 329.375 124.431 329.938 125.499 330.073C125.604 330.087 125.702 330.094 125.807 330.101L131.639 330.361L135.472 330.53C135.779 330.545 136.087 330.524 136.39 330.467C137.19 330.313 137.933 329.917 138.532 329.326C138.945 328.919 139.279 328.428 139.514 327.882C139.749 327.335 139.881 326.744 139.902 326.142L140.157 319.542L142.038 270.722L143.244 239.568C143.291 238.355 142.888 237.172 142.123 236.278Z" fill="#394DFD"/>
<path d="M136.54 229.446C135.726 229.261 134.896 229.169 134.063 229.171C130.849 229.175 127.768 230.55 125.496 232.992C123.223 235.435 121.945 238.747 121.941 242.202V266.151C121.943 266.909 122.119 267.655 122.454 268.322C122.789 268.99 123.272 269.558 123.861 269.975C124.341 270.315 124.881 270.545 125.447 270.652C125.695 270.702 125.947 270.728 126.2 270.729H141.926C141.964 270.73 142.001 270.728 142.038 270.722C143.147 270.692 144.202 270.197 144.976 269.343C145.751 268.489 146.185 267.343 146.186 266.151V242.202C146.182 239.209 145.222 236.309 143.466 233.987C141.71 231.664 139.265 230.061 136.54 229.446Z" fill="#2F2E41"/>
<path d="M190.757 247.309L173.517 232.144C171.029 229.954 167.834 228.917 164.635 229.26C161.435 229.602 158.494 231.297 156.457 233.971C154.42 236.646 153.455 240.08 153.774 243.519C154.093 246.958 155.67 250.12 158.157 252.31L175.397 267.475C176.157 268.144 177.108 268.51 178.089 268.511C179.071 268.512 180.023 268.149 180.784 267.482C181.01 267.293 181.215 267.076 181.393 266.834L191.353 253.754C191.705 253.295 191.97 252.766 192.133 252.197C192.378 251.327 192.378 250.399 192.133 249.529C191.888 248.659 191.409 247.887 190.757 247.309Z" fill="#2F2E41"/>
<path d="M154.902 151.889C161.153 152.947 167.902 154.162 174.018 151.74C179.028 149.756 183.249 145.224 183.143 139.189C183.041 133.423 179.406 128.329 174.841 125.641C169.676 122.6 163.386 122.119 157.624 122.728C154.143 123.095 150.396 124.039 147.676 126.542C145.498 128.547 143.819 131.581 144.131 134.762L141.587 134.69C142.58 131.176 140.93 127.661 138.44 125.387C135.446 122.653 131.366 122.254 127.64 123.105C120.062 124.835 113.211 130.599 108.178 136.724C103.225 142.773 99.651 149.979 97.7397 157.771C95.5991 166.522 95.5479 176.331 98.8393 184.768C102.189 193.354 109.481 200.428 118.411 200.944C120.101 201.042 120.03 203.875 118.33 203.777C109.805 203.284 102.266 197.422 98.1066 189.577C93.3268 180.563 92.7103 169.485 94.6586 159.487C96.4112 150.735 100.136 142.579 105.506 135.735C110.866 128.858 118.387 122.487 126.658 120.437C131.41 119.259 136.409 119.876 140.225 123.318C143.482 126.256 145.385 130.997 144.113 135.502C143.764 136.739 141.713 136.899 141.569 135.431C140.839 127.986 146.493 122.585 152.707 120.793C156.231 119.858 159.867 119.499 163.491 119.73C166.819 119.834 170.11 120.516 173.236 121.749C179.132 124.187 184.038 129.258 185.422 136.05C186.803 142.825 183.75 149.104 178.347 152.625C171.217 157.272 162.645 156.046 154.821 154.722C154.475 154.698 154.151 154.534 153.914 154.263C153.677 153.992 153.544 153.634 153.544 153.262C153.556 152.887 153.706 152.532 153.96 152.275C154.214 152.018 154.553 151.879 154.902 151.889Z" fill="#2F2E41"/>
<path d="M302.592 416H0.792125C0.58204 416 0.380559 415.91 0.232007 415.751C0.0834551 415.591 0 415.374 0 415.149C0 414.923 0.0834551 414.706 0.232007 414.547C0.380559 414.387 0.58204 414.297 0.792125 414.297H302.592C302.802 414.297 303.003 414.387 303.152 414.547C303.3 414.706 303.384 414.923 303.384 415.149C303.384 415.374 303.3 415.591 303.152 415.751C303.003 415.91 302.802 416 302.592 416Z" fill="#3F3D56"/>
</g>
<defs>
<clipPath id="clip0_317_1953">
<rect width="682" height="416" fill="white"/>
</clipPath>
</defs>
</svg>
