<svg width="540" height="417" viewBox="0 0 540 417" fill="none" xmlns="http://www.w3.org/2000/svg">
<g clip-path="url(#clip0_317_1758)">
<path d="M200.153 256.931L88.3681 281.595C85.1377 282.304 81.7706 281.642 79.0055 279.756C76.2405 277.869 74.3032 274.912 73.6188 271.532L54.4368 176.274C53.7596 172.892 54.3916 169.368 56.1939 166.473C57.9963 163.579 60.8218 161.551 64.0507 160.835L175.835 136.171C179.066 135.463 182.433 136.124 185.198 138.011C187.963 139.897 189.9 142.855 190.585 146.235L209.767 241.493C210.444 244.874 209.812 248.399 208.01 251.293C206.207 254.187 203.382 256.215 200.153 256.931ZM64.3528 162.335C61.5038 162.967 59.0107 164.756 57.4204 167.31C55.8301 169.864 55.2725 172.974 55.8699 175.958L75.052 271.215C75.6558 274.198 77.3652 276.807 79.8049 278.472C82.2447 280.137 85.2157 280.72 88.0661 280.095L199.851 255.431C202.7 254.799 205.193 253.01 206.783 250.456C208.373 247.902 208.931 244.792 208.334 241.809L189.151 146.551C188.548 143.569 186.838 140.959 184.398 139.294C181.959 137.63 178.988 137.046 176.137 137.671L64.3528 162.335Z" fill="#3F3D56"/>
<path d="M168.89 167.581L112.474 180.028C111.98 180.148 111.461 180.067 111.022 179.802C110.583 179.537 110.257 179.107 110.109 178.6C110.041 178.335 110.026 178.059 110.063 177.788C110.101 177.517 110.191 177.257 110.328 177.023C110.465 176.79 110.646 176.588 110.86 176.43C111.074 176.272 111.316 176.162 111.572 176.105L169.001 163.435C171.243 164.758 170.534 167.218 168.889 167.581L168.89 167.581Z" fill="#CCCCCC"/>
<path d="M170.976 177.939L114.559 190.386C114.066 190.506 113.547 190.426 113.108 190.161C112.669 189.895 112.343 189.466 112.195 188.958C112.127 188.694 112.112 188.417 112.149 188.146C112.187 187.875 112.277 187.615 112.414 187.382C112.551 187.148 112.732 186.947 112.946 186.789C113.16 186.631 113.402 186.52 113.658 186.464L171.086 173.793C173.329 175.116 172.621 177.576 170.976 177.939Z" fill="#CCCCCC"/>
<path d="M103.551 198.975L86.3337 202.774C85.7714 202.897 85.1853 202.782 84.704 202.454C84.2227 202.125 83.8855 201.611 83.7664 201.022L79.4837 179.754C79.3658 179.166 79.4757 178.552 79.7895 178.048C80.1032 177.545 80.595 177.192 81.1571 177.067L98.3748 173.268C98.9371 173.145 99.5231 173.26 100.004 173.589C100.486 173.917 100.823 174.432 100.942 175.02L105.225 196.288C105.343 196.876 105.233 197.49 104.919 197.994C104.605 198.498 104.113 198.85 103.551 198.975Z" fill="#CCCCCC"/>
<path d="M175.082 199.184L88.9809 218.181C88.4872 218.301 87.9684 218.22 87.5294 217.955C87.0904 217.69 86.764 217.26 86.616 216.753C86.5484 216.488 86.5329 216.212 86.5707 215.941C86.6084 215.67 86.6985 215.41 86.8354 215.176C86.9724 214.943 87.1533 214.741 87.3672 214.583C87.5812 214.426 87.8235 214.315 88.0796 214.259L175.194 195.038C177.436 196.361 176.727 198.821 175.082 199.184Z" fill="#CCCCCC"/>
<path d="M177.169 209.545L91.0673 228.542C90.5736 228.662 90.0548 228.582 89.6158 228.317C89.1769 228.051 88.8504 227.622 88.7024 227.114C88.6348 226.85 88.6194 226.573 88.6571 226.302C88.6948 226.031 88.7849 225.771 88.9218 225.538C89.0588 225.304 89.2398 225.103 89.4537 224.945C89.6676 224.787 89.91 224.676 90.166 224.62L177.28 205.399C179.523 206.722 178.814 209.182 177.169 209.545Z" fill="#CCCCCC"/>
<path d="M179.254 219.9L93.1525 238.897C92.6588 239.017 92.14 238.936 91.7011 238.671C91.2621 238.406 90.9356 237.976 90.7877 237.469C90.72 237.204 90.7046 236.928 90.7423 236.657C90.78 236.386 90.8701 236.126 91.007 235.892C91.144 235.659 91.325 235.457 91.5389 235.299C91.7528 235.141 91.9952 235.031 92.2513 234.974L179.365 215.754C181.608 217.077 180.899 219.537 179.254 219.9Z" fill="#CCCCCC"/>
<path d="M181.34 230.261L95.2389 249.258C94.7453 249.377 94.2265 249.297 93.7875 249.032C93.3485 248.766 93.022 248.337 92.8741 247.829C92.8064 247.565 92.791 247.289 92.8287 247.017C92.8664 246.746 92.9565 246.486 93.0935 246.253C93.2304 246.019 93.4114 245.818 93.6253 245.66C93.8392 245.502 94.0816 245.391 94.3377 245.335L181.452 226.115C183.694 227.437 182.985 229.898 181.34 230.261Z" fill="#CCCCCC"/>
<path d="M183.426 240.616L97.3241 259.613C96.8305 259.733 96.3117 259.652 95.8727 259.387C95.4337 259.122 95.1072 258.692 94.9593 258.185C94.8916 257.92 94.8762 257.644 94.9139 257.373C94.9516 257.102 95.0417 256.842 95.1787 256.608C95.3156 256.375 95.4966 256.173 95.7105 256.015C95.9244 255.857 96.1668 255.747 96.4229 255.69L183.537 236.47C185.779 237.793 185.071 240.253 183.426 240.616Z" fill="#CCCCCC"/>
<path d="M197.16 193.192C196.964 193.564 196.797 193.951 196.659 194.35L161.411 203.506L155.279 196.866L144.495 205.243L154.259 218.102C155.048 219.141 156.138 219.884 157.364 220.22C158.591 220.555 159.888 220.465 161.062 219.963L199.31 203.604C200.567 204.572 202.076 205.117 203.637 205.166C205.197 205.215 206.735 204.766 208.045 203.878C209.355 202.99 210.376 201.705 210.972 200.195C211.568 198.685 211.711 197.02 211.381 195.423C211.051 193.826 210.264 192.372 209.126 191.254C207.987 190.136 206.55 189.408 205.006 189.166C203.463 188.924 201.885 189.179 200.483 189.898C199.082 190.618 197.922 191.767 197.16 193.192Z" fill="#FFB8B8"/>
<path d="M76.8432 274.67C77.9421 274.315 78.9532 273.712 79.8054 272.903C80.6575 272.095 81.3299 271.1 81.7752 269.99C82.2205 268.88 82.4279 267.682 82.3828 266.479C82.3377 265.276 82.0412 264.098 81.5141 263.028L105.771 192.454L88.9255 189.329L70.3785 259.684C68.7199 260.73 67.4855 262.376 66.9092 264.311C66.3329 266.246 66.4547 268.335 67.2516 270.182C68.0485 272.03 69.465 273.507 71.2328 274.334C73.0006 275.161 74.9968 275.281 76.8432 274.67Z" fill="#FFB8B8"/>
<path d="M102.691 204.982L86.0579 198.3C85.5847 198.11 85.1561 197.815 84.8015 197.436C84.4469 197.057 84.1744 196.603 84.0028 196.103C83.8312 195.604 83.7643 195.072 83.8069 194.543C83.8494 194.015 84.0003 193.502 84.2493 193.039L92.9748 176.846C93.9184 174.318 95.7811 172.284 98.1544 171.191C100.528 170.098 103.218 170.035 105.636 171.015C108.054 171.995 110.003 173.938 111.054 176.419C112.106 178.9 112.175 181.716 111.246 184.25L107.397 202.339C107.287 202.857 107.071 203.343 106.765 203.766C106.459 204.189 106.069 204.538 105.622 204.789C105.176 205.039 104.682 205.187 104.177 205.22C103.671 205.253 103.164 205.172 102.691 204.982Z" fill="#394DFD"/>
<path d="M140.233 407.169H149.21L153.482 370.921L140.231 370.921L140.233 407.169Z" fill="#FFB8B8"/>
<path d="M137.942 404.101L155.623 404.1H155.624C157.104 404.1 158.569 404.405 159.936 404.998C161.303 405.591 162.545 406.459 163.591 407.555C164.638 408.65 165.468 409.95 166.034 411.381C166.6 412.812 166.892 414.346 166.892 415.895V416.278L137.943 416.279L137.942 404.101Z" fill="#2F2E41"/>
<path d="M89.7031 407.169H98.6805L102.952 370.921L89.7017 370.921L89.7031 407.169Z" fill="#FFB8B8"/>
<path d="M87.4128 404.101L105.094 404.1H105.094C106.574 404.1 108.039 404.405 109.406 404.998C110.773 405.591 112.016 406.459 113.062 407.555C114.108 408.65 114.938 409.95 115.504 411.381C116.071 412.812 116.362 414.346 116.362 415.895V416.278L87.4134 416.279L87.4128 404.101Z" fill="#2F2E41"/>
<path d="M99.1152 392.58H87.7536C87.3077 392.58 86.8664 392.485 86.4565 392.301C86.0466 392.117 85.6765 391.849 85.3688 391.511C85.0611 391.173 84.822 390.773 84.6662 390.336C84.5103 389.899 84.4408 389.433 84.462 388.966L89.8587 267.598L90.1987 267.588L145.063 266.091L155.799 387.529C155.84 387.984 155.795 388.444 155.665 388.88C155.535 389.317 155.324 389.722 155.043 390.073C154.762 390.423 154.417 390.711 154.029 390.921C153.641 391.131 153.217 391.257 152.781 391.294L140.02 392.362C139.218 392.429 138.421 392.186 137.778 391.681C137.135 391.175 136.691 390.441 136.529 389.616L120.205 303.168C120.161 302.905 120.028 302.668 119.83 302.5C119.633 302.331 119.384 302.242 119.13 302.249H119.125C118.869 302.243 118.62 302.333 118.423 302.504C118.226 302.674 118.094 302.913 118.051 303.177L102.349 389.797C102.2 390.58 101.796 391.286 101.207 391.793C100.618 392.3 99.8784 392.578 99.1152 392.58Z" fill="#2F2E41"/>
<path d="M119.927 159.353C129.861 159.353 137.914 150.924 137.914 140.526C137.914 130.128 129.861 121.698 119.927 121.698C109.994 121.698 101.941 130.128 101.941 140.526C101.941 150.924 109.994 159.353 119.927 159.353Z" fill="#FFB8B8"/>
<path d="M113.896 281.821C105.324 281.821 96.5183 279.462 89.2188 272.488C88.8303 272.12 88.5304 271.66 88.3434 271.148C88.1565 270.635 88.0877 270.083 88.1426 269.537C88.9239 262.189 92.7139 224.249 90.5795 198.905C90.163 194.171 90.8033 189.401 92.4498 184.971C94.0963 180.54 96.704 176.571 100.067 173.376C103.371 170.188 107.338 167.848 111.654 166.54C115.97 165.232 120.518 164.991 124.938 165.838C125.162 165.88 125.386 165.924 125.61 165.969C140.01 168.886 150.015 182.836 148.883 198.417C147.231 221.153 145.75 251.906 148.076 269.298C148.172 270.009 148.053 270.735 147.736 271.372C147.419 272.009 146.919 272.527 146.307 272.852C141.016 275.65 127.76 281.821 113.896 281.821Z" fill="#394DFD"/>
<path d="M137.366 206.337C136.944 206.043 136.588 205.657 136.321 205.206C136.055 204.754 135.884 204.248 135.822 203.722L133.63 185.332C132.935 182.717 133.258 179.92 134.53 177.554C135.801 175.188 137.917 173.447 140.414 172.711C142.91 171.976 145.583 172.306 147.847 173.631C150.111 174.955 151.781 177.165 152.49 179.776L159.708 196.764C159.914 197.249 160.018 197.774 160.012 198.305C160.007 198.835 159.892 199.359 159.676 199.839C159.46 200.318 159.147 200.744 158.76 201.086C158.372 201.428 157.919 201.679 157.431 201.821L140.267 206.821C139.779 206.963 139.267 206.994 138.766 206.91C138.266 206.827 137.788 206.631 137.366 206.337Z" fill="#394DFD"/>
<path d="M113.648 159.087C111.946 159.12 110.254 158.8 108.671 158.144C107.974 157.863 107.251 157.632 106.555 157.351C100.414 154.867 96.3678 148.021 96.223 141.131C96.0781 134.24 99.4869 127.553 104.549 123.146C109.611 118.738 116.167 116.476 122.732 115.952C129.804 115.389 137.767 117.266 141.718 123.43C142.77 125.071 143.506 127.062 142.882 129.043C142.696 129.641 142.362 130.177 141.915 130.598C140.151 132.241 138.391 131.006 136.592 130.897C134.12 130.746 131.899 132.842 131.101 135.296C130.302 137.75 130.654 140.452 131.298 142.955C131.789 144.462 132.099 146.026 132.22 147.613C132.272 148.408 132.129 149.205 131.804 149.926C131.48 150.648 130.985 151.271 130.366 151.736C128.821 152.713 126.792 152.147 125.246 151.171C123.7 150.195 122.364 148.838 120.694 148.12C119.024 147.402 116.78 147.561 115.808 149.154C115.5 149.733 115.29 150.365 115.191 151.02C114.319 155.176 114.52 154.931 113.648 159.087Z" fill="#2F2E41"/>
<path d="M362.78 133.379H248.539C245.239 133.375 242.074 132.001 239.741 129.558C237.407 127.115 236.094 123.802 236.09 120.347V22.9963C236.094 19.5414 237.407 16.2291 239.741 13.7861C242.074 11.3432 245.239 9.96898 248.539 9.96509H362.78C366.081 9.96898 369.245 11.3432 371.579 13.7861C373.913 16.2291 375.226 19.5414 375.23 22.9963V120.347C375.226 123.802 373.913 127.115 371.579 129.558C369.245 132.001 366.081 133.375 362.78 133.379ZM248.539 11.4982C245.627 11.5016 242.835 12.7141 240.776 14.8697C238.716 17.0253 237.558 19.9479 237.555 22.9963V120.347C237.558 123.396 238.716 126.318 240.776 128.474C242.835 130.63 245.627 131.842 248.539 131.846H362.78C365.693 131.842 368.485 130.63 370.544 128.474C372.603 126.318 373.762 123.396 373.765 120.347V22.9963C373.762 19.9479 372.603 17.0253 370.544 14.8697C368.485 12.7141 365.693 11.5016 362.78 11.4982H248.539Z" fill="#3F3D56"/>
<path d="M349.795 39.1995H292.139C291.633 39.2103 291.141 39.0193 290.764 38.6651C290.386 38.3109 290.152 37.82 290.107 37.2916C290.093 37.018 290.132 36.7444 290.222 36.4873C290.313 36.2302 290.452 35.995 290.632 35.7962C290.812 35.5974 291.029 35.439 291.269 35.3308C291.51 35.2226 291.769 35.1668 292.03 35.1667H350.721C352.654 36.9451 351.476 39.1995 349.795 39.1995Z" fill="#CCCCCC"/>
<path d="M349.795 49.7855H292.139C291.633 49.7962 291.141 49.6052 290.764 49.251C290.386 48.8969 290.152 48.4059 290.107 47.8775C290.093 47.604 290.132 47.3303 290.222 47.0732C290.313 46.8161 290.452 46.581 290.632 46.3821C290.812 46.1833 291.029 46.025 291.269 45.9167C291.51 45.8085 291.769 45.7527 292.03 45.7527H350.721C352.654 47.5311 351.476 49.7855 349.795 49.7855Z" fill="#CCCCCC"/>
<path d="M279.676 55.8128H262.08C261.505 55.8122 260.954 55.573 260.548 55.1478C260.142 54.7225 259.913 54.146 259.913 53.5446V31.8092C259.913 31.2078 260.142 30.6313 260.548 30.206C260.954 29.7808 261.505 29.5416 262.08 29.541H279.676C280.25 29.5418 280.801 29.7811 281.207 30.2063C281.613 30.6315 281.842 31.2079 281.842 31.8092V53.5446C281.842 54.146 281.613 54.7225 281.207 55.1478C280.801 55.573 280.25 55.8122 279.676 55.8128Z" fill="#3F3D56"/>
<path d="M349.628 71.4602H261.634C261.128 71.471 260.636 71.28 260.259 70.9258C259.881 70.5716 259.646 70.0807 259.602 69.5523C259.588 69.2788 259.627 69.0051 259.717 68.748C259.808 68.4909 259.947 68.2558 260.127 68.0569C260.307 67.8581 260.524 67.6997 260.764 67.5915C261.005 67.4833 261.264 67.4275 261.525 67.4275H350.554C352.487 69.2059 351.309 71.4602 349.628 71.4602Z" fill="#CCCCCC"/>
<path d="M349.628 82.0494H261.634C261.128 82.0601 260.636 81.8691 260.259 81.5149C259.881 81.1608 259.646 80.6698 259.602 80.1414C259.588 79.8679 259.627 79.5942 259.717 79.3371C259.808 79.08 259.947 78.8449 260.127 78.6461C260.307 78.4472 260.524 78.2889 260.764 78.1806C261.005 78.0724 261.264 78.0166 261.525 78.0166H350.554C352.487 79.795 351.309 82.0494 349.628 82.0494Z" fill="#CCCCCC"/>
<path d="M349.628 92.6314H261.634C261.128 92.6422 260.636 92.4512 260.259 92.097C259.881 91.7428 259.646 91.2519 259.602 90.7234C259.588 90.4499 259.627 90.1763 259.717 89.9192C259.808 89.6621 259.947 89.4269 260.127 89.2281C260.307 89.0293 260.524 88.8709 260.764 88.7627C261.005 88.6545 261.264 88.5986 261.525 88.5986H350.554C352.487 90.377 351.309 92.6314 349.628 92.6314Z" fill="#CCCCCC"/>
<path d="M349.628 103.22H261.634C261.128 103.231 260.636 103.04 260.259 102.685C259.881 102.331 259.646 101.84 259.602 101.312C259.588 101.038 259.627 100.765 259.717 100.508C259.808 100.25 259.947 100.015 260.127 99.8165C260.307 99.6176 260.524 99.4593 260.764 99.3511C261.005 99.2428 261.264 99.187 261.525 99.187H350.554C352.487 100.965 351.309 103.22 349.628 103.22Z" fill="#CCCCCC"/>
<path d="M349.628 113.803H261.634C261.128 113.813 260.636 113.622 260.259 113.268C259.881 112.914 259.646 112.423 259.602 111.895C259.588 111.621 259.627 111.347 259.717 111.09C259.808 110.833 259.947 110.598 260.127 110.399C260.307 110.2 260.524 110.042 260.764 109.934C261.005 109.826 261.264 109.77 261.525 109.77H350.554C352.487 111.548 351.309 113.803 349.628 113.803Z" fill="#CCCCCC"/>
<path d="M337.882 0C338.852 0.0011625 339.783 0.405339 340.47 1.12386C341.156 1.84238 341.542 2.81658 341.543 3.83272V16.0974C341.542 17.1136 341.156 18.0878 340.47 18.8063C339.783 19.5248 338.852 19.929 337.882 19.9301H273.438C272.467 19.929 271.537 19.5248 270.85 18.8063C270.164 18.0878 269.778 17.1136 269.777 16.0974V3.83272C269.778 2.81658 270.164 1.84238 270.85 1.12386C271.537 0.405339 272.467 0.0011625 273.438 0" fill="#394DFD"/>
<path d="M527.551 253.726H413.31C410.009 253.722 406.845 252.348 404.511 249.905C402.177 247.462 400.864 244.15 400.861 240.695V143.344C400.864 139.889 402.177 136.577 404.511 134.134C406.845 131.691 410.009 130.316 413.31 130.312H527.551C530.851 130.316 534.016 131.691 536.35 134.134C538.684 136.577 539.996 139.889 540 143.344V240.695C539.996 244.15 538.684 247.462 536.35 249.905C534.016 252.348 530.851 253.722 527.551 253.726ZM413.31 131.846C410.398 131.849 407.606 133.062 405.546 135.217C403.487 137.373 402.329 140.295 402.325 143.344V240.695C402.329 243.743 403.487 246.666 405.546 248.821C407.606 250.977 410.398 252.19 413.31 252.193H527.551C530.463 252.19 533.255 250.977 535.314 248.821C537.374 246.666 538.532 243.743 538.535 240.695V143.344C538.532 140.295 537.374 137.373 535.314 135.217C533.255 133.062 530.463 131.849 527.551 131.846H413.31Z" fill="#3F3D56"/>
<path d="M514.566 159.547H456.91C456.403 159.558 455.911 159.367 455.534 159.013C455.157 158.658 454.922 158.167 454.877 157.639C454.863 157.365 454.903 157.092 454.993 156.835C455.083 156.578 455.223 156.342 455.403 156.144C455.583 155.945 455.799 155.786 456.04 155.678C456.28 155.57 456.539 155.514 456.801 155.514H515.491C517.424 157.293 516.247 159.547 514.566 159.547Z" fill="#3F3D56"/>
<path d="M514.566 170.133H456.91C456.403 170.144 455.911 169.953 455.534 169.598C455.157 169.244 454.922 168.753 454.877 168.225C454.863 167.951 454.903 167.678 454.993 167.421C455.083 167.164 455.223 166.928 455.403 166.73C455.583 166.531 455.799 166.372 456.04 166.264C456.28 166.156 456.539 166.1 456.801 166.1H515.491C517.424 167.878 516.247 170.133 514.566 170.133Z" fill="#3F3D56"/>
<path d="M444.446 176.16H426.85C426.276 176.16 425.725 175.92 425.318 175.495C424.912 175.07 424.684 174.493 424.683 173.892V152.157C424.684 151.555 424.912 150.979 425.318 150.553C425.725 150.128 426.276 149.889 426.85 149.888H444.446C445.02 149.889 445.571 150.128 445.977 150.554C446.384 150.979 446.612 151.555 446.613 152.157V173.892C446.612 174.493 446.384 175.07 445.978 175.495C445.571 175.92 445.021 176.16 444.446 176.16Z" fill="#CCCCCC"/>
<path d="M514.016 235.184H496.42C495.845 235.183 495.294 234.944 494.888 234.519C494.482 234.094 494.253 233.517 494.253 232.916V220.379C494.253 219.778 494.482 219.201 494.888 218.776C495.294 218.351 495.845 218.111 496.42 218.111H514.016C514.59 218.112 515.141 218.351 515.547 218.776C515.953 219.201 516.182 219.778 516.183 220.379V232.916C516.182 233.517 515.953 234.094 515.547 234.519C515.141 234.944 514.59 235.183 514.016 235.184Z" fill="#3F3D56"/>
<path d="M514.398 191.808H426.405C425.898 191.818 425.406 191.627 425.029 191.273C424.651 190.919 424.417 190.428 424.372 189.9C424.358 189.626 424.397 189.353 424.488 189.095C424.578 188.838 424.717 188.603 424.897 188.404C425.077 188.206 425.294 188.047 425.534 187.939C425.775 187.831 426.034 187.775 426.296 187.775H515.324C517.257 189.553 516.079 191.808 514.398 191.808Z" fill="#CCCCCC"/>
<path d="M514.398 202.397H426.405C425.898 202.408 425.406 202.217 425.029 201.862C424.651 201.508 424.417 201.017 424.372 200.489C424.358 200.215 424.397 199.942 424.488 199.685C424.578 199.427 424.717 199.192 424.897 198.993C425.077 198.795 425.294 198.636 425.534 198.528C425.775 198.42 426.034 198.364 426.296 198.364H515.324C517.257 200.142 516.079 202.397 514.398 202.397Z" fill="#CCCCCC"/>
<path d="M514.398 212.979H426.405C425.898 212.99 425.406 212.799 425.029 212.444C424.651 212.09 424.417 211.599 424.372 211.071C424.358 210.797 424.397 210.524 424.488 210.267C424.578 210.009 424.717 209.774 424.897 209.576C425.077 209.377 425.294 209.218 425.534 209.11C425.775 209.002 426.034 208.946 426.296 208.946H515.324C517.257 210.724 516.079 212.979 514.398 212.979Z" fill="#CCCCCC"/>
<path d="M468.262 223.567H426.405C425.898 223.578 425.406 223.387 425.029 223.033C424.651 222.679 424.417 222.188 424.372 221.659C424.358 221.386 424.397 221.112 424.488 220.855C424.578 220.598 424.717 220.363 424.897 220.164C425.077 219.965 425.294 219.807 425.534 219.698C425.775 219.59 426.034 219.534 426.296 219.534H469.188C471.122 221.313 469.943 223.567 468.262 223.567Z" fill="#CCCCCC"/>
<path d="M468.262 234.15H426.405C425.898 234.161 425.406 233.97 425.029 233.616C424.651 233.261 424.417 232.77 424.372 232.242C424.358 231.968 424.397 231.695 424.488 231.438C424.578 231.181 424.717 230.945 424.897 230.747C425.077 230.548 425.294 230.389 425.534 230.281C425.775 230.173 426.034 230.117 426.296 230.117H469.188C471.122 231.896 469.943 234.15 468.262 234.15Z" fill="#CCCCCC"/>
<path d="M502.652 140.278H438.208C437.238 140.276 436.307 139.872 435.621 139.154C434.934 138.435 434.548 137.461 434.547 136.445V124.18C434.548 123.164 434.934 122.19 435.621 121.471C436.307 120.753 437.238 120.349 438.208 120.347H502.652C503.623 120.349 504.553 120.753 505.24 121.471C505.926 122.19 506.312 123.164 506.314 124.18V136.445C506.312 137.461 505.926 138.435 505.24 139.154C504.553 139.872 503.623 140.276 502.652 140.278Z" fill="#394DFD"/>
<path d="M279.743 417H0.732313C0.538091 417 0.351824 416.919 0.214489 416.775C0.0771536 416.632 0 416.437 0 416.233C0 416.03 0.0771536 415.835 0.214489 415.691C0.351824 415.548 0.538091 415.467 0.732313 415.467H279.743C279.938 415.467 280.124 415.548 280.261 415.691C280.399 415.835 280.476 416.03 280.476 416.233C280.476 416.437 280.399 416.632 280.261 416.775C280.124 416.919 279.938 417 279.743 417Z" fill="#3F3D56"/>
<path d="M70.8613 22.8362C73.4768 22.8362 75.5971 20.6168 75.5971 17.879C75.5971 15.1413 73.4768 12.9219 70.8613 12.9219C68.2458 12.9219 66.1255 15.1413 66.1255 17.879C66.1255 20.6168 68.2458 22.8362 70.8613 22.8362Z" fill="#F2F2F2"/>
<path d="M70.8613 42.5925C73.4768 42.5925 75.5971 40.3731 75.5971 37.6354C75.5971 34.8976 73.4768 32.6782 70.8613 32.6782C68.2458 32.6782 66.1255 34.8976 66.1255 37.6354C66.1255 40.3731 68.2458 42.5925 70.8613 42.5925Z" fill="#F2F2F2"/>
<path d="M70.8613 62.3489C73.4768 62.3489 75.5971 60.1295 75.5971 57.3917C75.5971 54.654 73.4768 52.4346 70.8613 52.4346C68.2458 52.4346 66.1255 54.654 66.1255 57.3917C66.1255 60.1295 68.2458 62.3489 70.8613 62.3489Z" fill="#F2F2F2"/>
<path d="M70.8613 82.1055C73.4768 82.1055 75.5971 79.8861 75.5971 77.1483C75.5971 74.4106 73.4768 72.1912 70.8613 72.1912C68.2458 72.1912 66.1255 74.4106 66.1255 77.1483C66.1255 79.8861 68.2458 82.1055 70.8613 82.1055Z" fill="#F2F2F2"/>
<path d="M90.6337 22.8362C93.2492 22.8362 95.3695 20.6168 95.3695 17.879C95.3695 15.1413 93.2492 12.9219 90.6337 12.9219C88.0182 12.9219 85.8979 15.1413 85.8979 17.879C85.8979 20.6168 88.0182 22.8362 90.6337 22.8362Z" fill="#F2F2F2"/>
<path d="M90.6337 42.5925C93.2492 42.5925 95.3695 40.3731 95.3695 37.6354C95.3695 34.8976 93.2492 32.6782 90.6337 32.6782C88.0182 32.6782 85.8979 34.8976 85.8979 37.6354C85.8979 40.3731 88.0182 42.5925 90.6337 42.5925Z" fill="#F2F2F2"/>
<path d="M90.6337 62.3489C93.2492 62.3489 95.3695 60.1295 95.3695 57.3917C95.3695 54.654 93.2492 52.4346 90.6337 52.4346C88.0182 52.4346 85.8979 54.654 85.8979 57.3917C85.8979 60.1295 88.0182 62.3489 90.6337 62.3489Z" fill="#F2F2F2"/>
<path d="M90.6337 82.1055C93.2492 82.1055 95.3695 79.8861 95.3695 77.1483C95.3695 74.4106 93.2492 72.1912 90.6337 72.1912C88.0182 72.1912 85.8979 74.4106 85.8979 77.1483C85.8979 79.8861 88.0182 82.1055 90.6337 82.1055Z" fill="#F2F2F2"/>
<path d="M110.406 22.8362C113.022 22.8362 115.142 20.6168 115.142 17.879C115.142 15.1413 113.022 12.9219 110.406 12.9219C107.791 12.9219 105.67 15.1413 105.67 17.879C105.67 20.6168 107.791 22.8362 110.406 22.8362Z" fill="#F2F2F2"/>
<path d="M110.406 42.5925C113.022 42.5925 115.142 40.3731 115.142 37.6354C115.142 34.8976 113.022 32.6782 110.406 32.6782C107.791 32.6782 105.67 34.8976 105.67 37.6354C105.67 40.3731 107.791 42.5925 110.406 42.5925Z" fill="#F2F2F2"/>
<path d="M110.406 62.3489C113.022 62.3489 115.142 60.1295 115.142 57.3917C115.142 54.654 113.022 52.4346 110.406 52.4346C107.791 52.4346 105.67 54.654 105.67 57.3917C105.67 60.1295 107.791 62.3489 110.406 62.3489Z" fill="#F2F2F2"/>
<path d="M110.406 82.1055C113.022 82.1055 115.142 79.8861 115.142 77.1483C115.142 74.4106 113.022 72.1912 110.406 72.1912C107.791 72.1912 105.67 74.4106 105.67 77.1483C105.67 79.8861 107.791 82.1055 110.406 82.1055Z" fill="#F2F2F2"/>
<path d="M130.179 22.8362C132.794 22.8362 134.914 20.6168 134.914 17.879C134.914 15.1413 132.794 12.9219 130.179 12.9219C127.563 12.9219 125.443 15.1413 125.443 17.879C125.443 20.6168 127.563 22.8362 130.179 22.8362Z" fill="#F2F2F2"/>
<path d="M130.179 42.5925C132.794 42.5925 134.914 40.3731 134.914 37.6354C134.914 34.8976 132.794 32.6782 130.179 32.6782C127.563 32.6782 125.443 34.8976 125.443 37.6354C125.443 40.3731 127.563 42.5925 130.179 42.5925Z" fill="#F2F2F2"/>
<path d="M130.179 62.3489C132.794 62.3489 134.914 60.1295 134.914 57.3917C134.914 54.654 132.794 52.4346 130.179 52.4346C127.563 52.4346 125.443 54.654 125.443 57.3917C125.443 60.1295 127.563 62.3489 130.179 62.3489Z" fill="#F2F2F2"/>
<path d="M130.179 82.1055C132.794 82.1055 134.914 79.8861 134.914 77.1483C134.914 74.4106 132.794 72.1912 130.179 72.1912C127.563 72.1912 125.443 74.4106 125.443 77.1483C125.443 79.8861 127.563 82.1055 130.179 82.1055Z" fill="#F2F2F2"/>
<path d="M149.951 22.8362C152.567 22.8362 154.687 20.6168 154.687 17.879C154.687 15.1413 152.567 12.9219 149.951 12.9219C147.336 12.9219 145.215 15.1413 145.215 17.879C145.215 20.6168 147.336 22.8362 149.951 22.8362Z" fill="#F2F2F2"/>
<path d="M149.951 42.5925C152.567 42.5925 154.687 40.3731 154.687 37.6354C154.687 34.8976 152.567 32.6782 149.951 32.6782C147.336 32.6782 145.215 34.8976 145.215 37.6354C145.215 40.3731 147.336 42.5925 149.951 42.5925Z" fill="#F2F2F2"/>
<path d="M149.951 62.3489C152.567 62.3489 154.687 60.1295 154.687 57.3917C154.687 54.654 152.567 52.4346 149.951 52.4346C147.336 52.4346 145.215 54.654 145.215 57.3917C145.215 60.1295 147.336 62.3489 149.951 62.3489Z" fill="#F2F2F2"/>
<path d="M149.951 82.1055C152.567 82.1055 154.687 79.8861 154.687 77.1483C154.687 74.4106 152.567 72.1912 149.951 72.1912C147.336 72.1912 145.215 74.4106 145.215 77.1483C145.215 79.8861 147.336 82.1055 149.951 82.1055Z" fill="#F2F2F2"/>
<path d="M169.724 22.8362C172.339 22.8362 174.459 20.6168 174.459 17.879C174.459 15.1413 172.339 12.9219 169.724 12.9219C167.108 12.9219 164.988 15.1413 164.988 17.879C164.988 20.6168 167.108 22.8362 169.724 22.8362Z" fill="#F2F2F2"/>
<path d="M169.724 42.5925C172.339 42.5925 174.459 40.3731 174.459 37.6354C174.459 34.8976 172.339 32.6782 169.724 32.6782C167.108 32.6782 164.988 34.8976 164.988 37.6354C164.988 40.3731 167.108 42.5925 169.724 42.5925Z" fill="#F2F2F2"/>
<path d="M169.724 62.3489C172.339 62.3489 174.459 60.1295 174.459 57.3917C174.459 54.654 172.339 52.4346 169.724 52.4346C167.108 52.4346 164.988 54.654 164.988 57.3917C164.988 60.1295 167.108 62.3489 169.724 62.3489Z" fill="#F2F2F2"/>
<path d="M169.724 82.1055C172.339 82.1055 174.459 79.8861 174.459 77.1483C174.459 74.4106 172.339 72.1912 169.724 72.1912C167.108 72.1912 164.988 74.4106 164.988 77.1483C164.988 79.8861 167.108 82.1055 169.724 82.1055Z" fill="#F2F2F2"/>
<path d="M440.679 297.259C443.295 297.259 445.415 295.04 445.415 292.302C445.415 289.564 443.295 287.345 440.679 287.345C438.064 287.345 435.944 289.564 435.944 292.302C435.944 295.04 438.064 297.259 440.679 297.259Z" fill="#F2F2F2"/>
<path d="M440.679 317.015C443.295 317.015 445.415 314.796 445.415 312.058C445.415 309.32 443.295 307.101 440.679 307.101C438.064 307.101 435.944 309.32 435.944 312.058C435.944 314.796 438.064 317.015 440.679 317.015Z" fill="#F2F2F2"/>
<path d="M440.679 336.772C443.295 336.772 445.415 334.552 445.415 331.815C445.415 329.077 443.295 326.857 440.679 326.857C438.064 326.857 435.944 329.077 435.944 331.815C435.944 334.552 438.064 336.772 440.679 336.772Z" fill="#F2F2F2"/>
<path d="M460.452 297.259C463.067 297.259 465.188 295.04 465.188 292.302C465.188 289.564 463.067 287.345 460.452 287.345C457.836 287.345 455.716 289.564 455.716 292.302C455.716 295.04 457.836 297.259 460.452 297.259Z" fill="#F2F2F2"/>
<path d="M460.452 317.015C463.067 317.015 465.188 314.796 465.188 312.058C465.188 309.32 463.067 307.101 460.452 307.101C457.836 307.101 455.716 309.32 455.716 312.058C455.716 314.796 457.836 317.015 460.452 317.015Z" fill="#F2F2F2"/>
<path d="M460.452 336.772C463.067 336.772 465.188 334.552 465.188 331.815C465.188 329.077 463.067 326.857 460.452 326.857C457.836 326.857 455.716 329.077 455.716 331.815C455.716 334.552 457.836 336.772 460.452 336.772Z" fill="#F2F2F2"/>
<path d="M480.224 297.259C482.84 297.259 484.96 295.04 484.96 292.302C484.96 289.564 482.84 287.345 480.224 287.345C477.609 287.345 475.489 289.564 475.489 292.302C475.489 295.04 477.609 297.259 480.224 297.259Z" fill="#F2F2F2"/>
<path d="M480.224 317.015C482.84 317.015 484.96 314.796 484.96 312.058C484.96 309.32 482.84 307.101 480.224 307.101C477.609 307.101 475.489 309.32 475.489 312.058C475.489 314.796 477.609 317.015 480.224 317.015Z" fill="#F2F2F2"/>
<path d="M480.224 336.772C482.84 336.772 484.96 334.552 484.96 331.815C484.96 329.077 482.84 326.857 480.224 326.857C477.609 326.857 475.489 329.077 475.489 331.815C475.489 334.552 477.609 336.772 480.224 336.772Z" fill="#F2F2F2"/>
<path d="M499.997 297.259C502.612 297.259 504.733 295.04 504.733 292.302C504.733 289.564 502.612 287.345 499.997 287.345C497.381 287.345 495.261 289.564 495.261 292.302C495.261 295.04 497.381 297.259 499.997 297.259Z" fill="#F2F2F2"/>
<path d="M499.997 317.015C502.612 317.015 504.733 314.796 504.733 312.058C504.733 309.32 502.612 307.101 499.997 307.101C497.381 307.101 495.261 309.32 495.261 312.058C495.261 314.796 497.381 317.015 499.997 317.015Z" fill="#F2F2F2"/>
<path d="M499.997 336.772C502.612 336.772 504.733 334.552 504.733 331.815C504.733 329.077 502.612 326.857 499.997 326.857C497.381 326.857 495.261 329.077 495.261 331.815C495.261 334.552 497.381 336.772 499.997 336.772Z" fill="#F2F2F2"/>
</g>
<defs>
<clipPath id="clip0_317_1758">
<rect width="540" height="417" fill="white"/>
</clipPath>
</defs>
</svg>
