<svg width="37" height="34" viewBox="0 0 37 34" fill="none" xmlns="http://www.w3.org/2000/svg">
<path d="M24.1156 14.3846L27.9818 12.3034C29.1718 11.6627 29.7668 11.3424 30.2564 11.3834C30.6833 11.4191 31.0728 11.6169 31.3265 11.927C31.6176 12.2826 31.6176 12.9051 31.6176 14.1503V20.0036C31.6176 21.2487 31.6176 21.8712 31.3265 22.2269C31.0728 22.5369 30.6833 22.7348 30.2564 22.7705C29.7668 22.8114 29.1718 22.4912 27.9818 21.8505L24.1156 19.7692M9.41183 25.1538H19.3144C20.995 25.1538 21.8353 25.1538 22.4772 24.8604C23.0418 24.6023 23.5009 24.1904 23.7885 23.6838C24.1156 23.108 24.1156 22.354 24.1156 20.8462V13.3077C24.1156 11.7999 24.1156 11.0459 23.7885 10.47C23.5009 9.96343 23.0418 9.55156 22.4772 9.29345C21.8353 9 20.995 9 19.3144 9H9.41183C7.73125 9 6.89094 9 6.24905 9.29345C5.68441 9.55156 5.22535 9.96343 4.93766 10.47C4.6106 11.0459 4.6106 11.7999 4.6106 13.3077V20.8462C4.6106 22.354 4.6106 23.108 4.93766 23.6838C5.22535 24.1904 5.68441 24.6023 6.24905 24.8604C6.89094 25.1538 7.73123 25.1538 9.41183 25.1538Z" stroke="black" stroke-linecap="round" stroke-linejoin="round"/>
</svg>
